<svg xmlns="http://www.w3.org/2000/svg" width="23.074" height="21.427" viewBox="0 0 23.074 21.427">
  <path id="_27" data-name="27" d="M7.768,11.081A5.319,5.319,0,0,1,8,9.927a5.249,5.249,0,0,1,.473-1.154h0a1.788,1.788,0,1,1,1.754-1.846,5.941,5.941,0,0,1,1.061-.588A6.715,6.715,0,0,1,12.383,6a4.084,4.084,0,1,0-4.615,5.076ZM8.461,15.7a4.35,4.35,0,0,1,.958.127,6.08,6.08,0,0,1-.934-1.281A6.184,6.184,0,0,1,8,13.388a6.449,6.449,0,0,0-6,6.438A1.154,1.154,0,0,0,3.154,20.98H5.7a8.18,8.18,0,0,1,.438-1.154A8.756,8.756,0,0,1,6.8,18.672H4.492A4.13,4.13,0,0,1,8.461,15.7Zm8.41-8.745a1.777,1.777,0,1,1,1.765,1.927h0a5.249,5.249,0,0,1,.473,1.154,5.318,5.318,0,0,1,.231,1.154A4.084,4.084,0,1,0,14.691,6a6.045,6.045,0,0,1,1.154.346,6.426,6.426,0,0,1,1.027.6Zm2.2,6.438a6.184,6.184,0,0,1-.485,1.154,5.769,5.769,0,0,1-.946,1.292,4.038,4.038,0,0,1,.992-.138,4.142,4.142,0,0,1,3.969,2.977H20.3a8.756,8.756,0,0,1,.658,1.154,8.18,8.18,0,0,1,.438,1.154H23.92a1.154,1.154,0,0,0,1.154-1.154,6.438,6.438,0,0,0-6-6.438Zm-9-3.842a3.9,3.9,0,0,0-.565,1.534,4.246,4.246,0,0,0-.069.681A4.2,4.2,0,0,0,9.9,13.608a4.1,4.1,0,0,0,1.788,1.777,4.026,4.026,0,0,0,1.777.461.311.311,0,0,1,.081.092l.081-.1a3.911,3.911,0,0,0,1.754-.45,4.073,4.073,0,0,0,1.777-1.777,3.992,3.992,0,0,0,.473-1.846,4.4,4.4,0,0,0-.069-.692A4.246,4.246,0,0,0,17,9.523a3.957,3.957,0,0,0-.877-.981,4.28,4.28,0,0,0-2.584-.923,4.43,4.43,0,0,0-1.05.15,4.176,4.176,0,0,0-1.465.738,3.83,3.83,0,0,0-.946,1.038Zm3.461.381a1.788,1.788,0,1,1-1.788,1.788,1.788,1.788,0,0,1,1.788-1.788Zm5.422,9.9a6.922,6.922,0,0,0-.934-1.154,6.507,6.507,0,0,0-2.515-1.511h0a5.665,5.665,0,0,0-1.269-.311h0a6.056,6.056,0,0,0-.7,0h-.681a6.518,6.518,0,0,0-1.269.265h0a6.507,6.507,0,0,0-2.515,1.511,6.922,6.922,0,0,0-.934,1.154,7.233,7.233,0,0,0-.588,1.154,6.4,6.4,0,0,0-.427,2.307,1.154,1.154,0,0,0,1.154,1.154H18.844A1.154,1.154,0,0,0,20,23.241a6.4,6.4,0,0,0-.427-2.307A7.234,7.234,0,0,0,18.959,19.826ZM10.076,20.98a4.234,4.234,0,0,1,1.154-1.154,3.53,3.53,0,0,1,.911-.45,4.015,4.015,0,0,1,1.154-.208h.265a4.026,4.026,0,0,1,1.154.208,4.615,4.615,0,0,1,.888.45,4.038,4.038,0,0,1,1.742,2.307H9.568a4.223,4.223,0,0,1,.508-1.154Z" transform="translate(-2 -2.967)" fill="#fff"/>
</svg>
