<svg xmlns="http://www.w3.org/2000/svg" width="15.79" height="13.274" viewBox="0 0 15.79 13.274">
  <path id="_31" data-name="31" d="M17.419,5.612a.789.789,0,0,0-.789,0L13.053,7.373V5.494a.789.789,0,0,0-.434-.7,11.44,11.44,0,0,0-10.184,0,.789.789,0,0,0-.434.7v9.474a.789.789,0,0,0,.434.7,11.408,11.408,0,0,0,10.184,0,.789.789,0,0,0,.434-.7V13.089l3.592,1.792a.786.786,0,0,0,1.145-.7V6.283A.789.789,0,0,0,17.419,5.612ZM11.474,14.47a9.876,9.876,0,0,1-7.895,0V6a9.813,9.813,0,0,1,7.895,0Zm4.737-1.579-3.158-1.579V9.141l3.158-1.579Z" transform="translate(-2 -3.595)" fill="#fff"/>
</svg>
