<svg xmlns="http://www.w3.org/2000/svg" width="31.917" height="25.534" viewBox="0 0 31.917 25.534">
  <path id="_8665828_school_education_icon" data-name="8665828_school_education_icon" d="M15.959,6.384a.8.8,0,0,1,.8.8v.8h.8a.8.8,0,1,1,0,1.6h-1.6a.8.8,0,0,1-.8-.8v-1.6A.8.8,0,0,1,15.959,6.384Zm7.82-1.493,6.264,1.349a2.479,2.479,0,0,1,1.875,2.379V23.14a2.394,2.394,0,0,1-2.394,2.394H2.394A2.394,2.394,0,0,1,0,23.14V8.618A2.481,2.481,0,0,1,1.875,6.239L8.139,4.891,15.071.268a1.6,1.6,0,0,1,1.775,0ZM12.767,25.534H19.15V20.747a3.192,3.192,0,1,0-6.383,0ZM4.788,9.575a.8.8,0,0,0-.8.8v3.192a.8.8,0,0,0,.8.8h1.6a.8.8,0,0,0,.8-.8V10.373a.8.8,0,0,0-.8-.8Zm19.948,3.99a.8.8,0,0,0,.8.8h1.6a.8.8,0,0,0,.8-.8V10.373a.8.8,0,0,0-.8-.8h-1.6a.8.8,0,0,0-.8.8ZM4.788,15.959a.8.8,0,0,0-.8.8v3.192a.8.8,0,0,0,.8.8h1.6a.8.8,0,0,0,.8-.8V16.757a.8.8,0,0,0-.8-.8Zm19.948,3.99a.8.8,0,0,0,.8.8h1.6a.8.8,0,0,0,.8-.8V16.757a.8.8,0,0,0-.8-.8h-1.6a.8.8,0,0,0-.8.8ZM15.959,4.389a4.389,4.389,0,1,0,4.389,4.389A4.389,4.389,0,0,0,15.959,4.389Z" fill="#FF9C39"/>
</svg>
