<svg xmlns="http://www.w3.org/2000/svg" width="32.622" height="32.618" viewBox="0 0 32.622 32.618">
  <g id="_4908113_belt_buoy_equipment_life_ring_icon" data-name="4908113_belt_buoy_equipment_life_ring_icon" transform="translate(-1.997 -1.988)">
    <path id="Path_51" data-name="Path 51" d="M8.16,3.246,12.871,12a6.52,6.52,0,0,1,7.856,7.856l8.753,4.711A16.3,16.3,0,0,0,8.16,3.246Z" transform="translate(3.882 0)" fill="#ff9c39"/>
    <path id="Path_52" data-name="Path 52" d="M14.906,14.9l-.2.163L19.4,23.8a16.3,16.3,0,0,0,4.385-4.385L15.052,14.72Z" transform="translate(8.008 8.02)" fill="#ff9c39"/>
    <path id="Path_53" data-name="Path 53" d="M12.61,12.61l.2-.163L8.111,3.71a16.3,16.3,0,0,0-4.4,4.4l8.737,4.694Z" transform="translate(1.079 1.085)" fill="#ff9c39"/>
    <path id="Path_54" data-name="Path 54" d="M18.3,30.712a16.3,16.3,0,0,0,6.259-1.239L19.85,20.721a6.52,6.52,0,0,1-7.856-7.856L3.24,8.17A16.3,16.3,0,0,0,18.3,30.712Z" transform="translate(0 3.894)" fill="#ff9c39"/>
  </g>
</svg>
