<svg id="Group_504" data-name="Group 504" xmlns="http://www.w3.org/2000/svg" width="34.659" height="27.174" viewBox="0 0 34.659 27.174">
  <path id="Path_1645" data-name="Path 1645" d="M410.821-691.134l11.222,5.984,10.722-5.984v5.984l-10.722,5.984-11.221-5.984Z" transform="translate(-404.463 706.34)" fill="#ff9c39"/>
  <path id="Path_1646" data-name="Path 1646" d="M404.882-747.075,387.428-737.6l17.454,9.475,13.964-7.979v11.221h3.241V-737.6Zm1.7,7.943a.576.576,0,0,0-.11.142.193.193,0,0,1-.231.138c-.029,0-.059,0-.1,0,0-.046,0-.088-.008-.147l-.1.053s-.017-.015-.016-.018c.043-.067,0-.1-.045-.147-.092-.095-.181-.193-.279-.3l.088-.1a.234.234,0,0,1,.208.18.351.351,0,0,0,.46.182c.054-.024.1-.043.132.012Zm3.21,4.447a6.149,6.149,0,0,1-8.154,2.026,6.144,6.144,0,0,1-2.614-7.957,6.128,6.128,0,0,1,7.08-3.4l-.109.031c.117.1.287.023.392.129l-.249.141a.814.814,0,0,1-.1-.064.172.172,0,0,0-.211-.01,1.033,1.033,0,0,1-.137.055l.008.113.1.036-.095.128.094.176-.311-.227c-.035.159.091.183.2.261h-.317l-.016.082c-.106.009-.214-.029-.318.026-.028.015-.078-.015-.125-.025l.034.13c-.042-.02-.08-.026-.084-.042-.018-.07-.062-.076-.135-.063l.055.133-.334.1-.005.1c-.134-.035-.034-.135-.072-.2.071-.013.149.064.214-.021a.276.276,0,0,0-.24-.14.132.132,0,0,1-.142-.071.052.052,0,0,0-.039-.022,1.222,1.222,0,0,0-.5.09,1.27,1.27,0,0,0-.509.376.236.236,0,0,1-.09.052c-.049.018-.117.016-.144.049s-.049.066-.071.1a1.256,1.256,0,0,1-.1.125c-.023.025-.017.074-.025.112.135.058.176-.1.289-.111l-.023.331c.243-.026.28-.268.452-.359a.217.217,0,0,1,.024-.186.218.218,0,0,1,.16-.1c.046-.012.083-.061.122-.095s.052-.043.168,0c-.047.029-.084.053-.122.074a.28.28,0,0,0-.159.234.6.6,0,0,0,.043.2c.026.087.018.117-.044.1-.083-.023-.106.03-.142.071-.053.062-.1.128-.146.187-.219-.018-.436.052-.637-.086l-.053.124a.45.45,0,0,0-.337.133,1.492,1.492,0,0,1-.4.192c-.091-.068-.167.058-.259.02-.015-.005-.05.042-.077.066.164.1.135.285-.107.439-.128-.018-.222-.161-.38-.1-.044.093-.09.2-.145.3a.786.786,0,0,0-.146.3l.132.167c.027,0,.078-.023.114-.008a.3.3,0,0,0,.351-.084.311.311,0,0,0,.077-.109.2.2,0,0,1,.156-.149.262.262,0,0,0,.182-.125.141.141,0,0,1,.117-.058c.145.045.263-.039.386-.059l.286.351a.211.211,0,0,1,.027.277c.114-.017.123-.031.184-.248l.1.044c0-.021,0-.042,0-.05a1.714,1.714,0,0,0-.172-.176c-.059-.045-.113-.077-.108-.165,0-.026-.049-.055-.078-.086l.032-.066a.419.419,0,0,1,.151.055c.034.032.027.092.043.156a.267.267,0,0,0,.059.035.237.237,0,0,1,.195.283c-.008.068.059.146.1.234-.067.074-.023.145.053.205.151.015.076-.176.211-.176l-.137-.2a.351.351,0,0,1,.281-.08c-.013.075-.005.146.08.17l-.059.1.17.217c.095-.015.209.091.317-.037.117.146.239.035.362.028a.954.954,0,0,1-.05.454.172.172,0,0,1-.1.136.172.172,0,0,1-.167-.012.234.234,0,0,0-.218-.008.323.323,0,0,1-.287,0,2.048,2.048,0,0,0-.3-.093,1.118,1.118,0,0,1-.122-.055.454.454,0,0,0-.093-.044c-.1-.02-.135.008-.159.107-.03.129-.071.157-.2.12-.105-.031-.211-.058-.259-.184a.162.162,0,0,0-.205-.092c-.093.025-.142-.025-.191-.109l.117-.169c0-.054-.021-.106,0-.138.032-.058,0-.085-.043-.126-.071.043-.147.112-.241.041a1.4,1.4,0,0,0-.686.044.252.252,0,0,1-.309-.086,1.275,1.275,0,0,1-.218.175.43.43,0,0,0-.219.261.261.261,0,0,1-.147.18,1.082,1.082,0,0,0-.513.51c-.041.071-.095.134-.147.207a.761.761,0,0,1-.12.579.468.468,0,0,0-.056.363,2.02,2.02,0,0,0,.139.429.389.389,0,0,1,.018.172.339.339,0,0,0,.1.255,1.862,1.862,0,0,1,.166.227.172.172,0,0,0,.178.086.421.421,0,0,1,.372.078c.033.029.112.015.167.008a.726.726,0,0,0,.13-.052.268.268,0,0,1,.221-.005.268.268,0,0,1,.15.163c.059.122.065.132.181.1a.143.143,0,0,1,.119,0,.143.143,0,0,1,.075.092.52.52,0,0,0,.077.1c-.078.117.028.283-.113.393.049.1.089.185.139.268.023.039.059.086.1.094.109.023.129.107.157.191.022.066.046.131.068.2.05.149.1.3.146.447.008.025.006.071-.009.083-.088.066-.064.164-.081.25a.364.364,0,0,0,.085.341,2.1,2.1,0,0,1,.374.646.292.292,0,0,0,.1.14c.13.08.2.216.3.315a.137.137,0,0,1,.034.074.186.186,0,0,0,.075.144.186.186,0,0,0,.159.031.581.581,0,0,1,.188,0,1.385,1.385,0,0,0,.351,0,.636.636,0,0,0,.2-.1c.04-.023.073-.065.117-.078a.344.344,0,0,0,.238-.277.217.217,0,0,1,.171-.176.954.954,0,0,0,.106-.043c.063-.143-.015-.253-.073-.375a3.947,3.947,0,0,1,.734-.428c-.034-.16-.063-.3-.092-.431a.181.181,0,0,0-.027-.083.7.7,0,0,1-.153-.377.183.183,0,0,1,.062-.2.872.872,0,0,0,.242-.293.957.957,0,0,1,.3-.316.388.388,0,0,0,.095-.078.5.5,0,0,1,.226-.186.145.145,0,0,0,.077-.067c.059-.14.176-.246.192-.41a.663.663,0,0,1,.1-.2c.042-.087.082-.176.126-.269l-.091-.151c-.042.02-.079.035-.113.055a.6.6,0,0,1-.32.081,1.44,1.44,0,0,0-.208.026c-.176.026-.224-.015-.234-.2h0v0a.587.587,0,0,1-.117-.094.288.288,0,0,0-.3-.152c-.019-.071-.03-.128-.049-.181-.025-.07-.035-.148-.117-.185-.067-.03-.059-.1-.051-.156a.435.435,0,0,0-.076-.292c-.009-.015-.014-.036-.027-.045-.225-.158-.25-.424-.356-.648a.126.126,0,0,1,.1-.029.126.126,0,0,1,.088.06c.09.106.223.185.188.357l.077.05a.237.237,0,0,1,.136.242.263.263,0,0,0,.109.24,1.74,1.74,0,0,1,.234.3,1.733,1.733,0,0,1,.1.176.111.111,0,0,0-.05.093.111.111,0,0,0,.05.093.194.194,0,0,1,.052.176h0v0a.3.3,0,0,0,.128.014,3.631,3.631,0,0,0,.337-.142c.159-.073.318-.148.476-.222.016-.008.036-.015.043-.029.067-.126.2-.156.31-.217.07-.038.145-.07.168-.164.006-.026.069-.038.128-.067l-.059-.2.081-.018c.007-.045.012-.092.022-.137a.175.175,0,0,0-.009-.15.175.175,0,0,0-.122-.088c-.05-.016-.1-.029-.166-.047-.012-.055-.025-.113-.042-.187l.262.053a.306.306,0,0,0,.269-.032.186.186,0,0,1,.083-.024c.1-.016.2-.03.306-.046a1.459,1.459,0,0,0,.161.141,1.659,1.659,0,0,0,.207.1c-.044.093.021.126.1.151a.186.186,0,0,0,.117-.181.291.291,0,0,1,.014.047,1.793,1.793,0,0,0,.293.819c.1.149.183.313.275.468.032.054.067.106.109.172a.557.557,0,0,0,.167-.418,2.9,2.9,0,0,1-.017-.433,1.015,1.015,0,0,1,.105-.293,1.628,1.628,0,0,0,.169-.531c.008-.109.094-.17.166-.245.144.046.2.181.306.27.117.1.051.261.164.378l.053-.184h.031l.226.585c.083-.1-.044-.218.035-.334l.207.293a.931.931,0,0,0-.014-.659c-.048-.106-.117-.205-.161-.313a2.227,2.227,0,0,1-.092-.3c-.007-.027-.009-.072.007-.085a.23.23,0,0,0,.065-.207,1.16,1.16,0,0,0-.059-.484c-.1-.217-.188-.443-.293-.661a.99.99,0,0,0-.128-.165,1.031,1.031,0,0,1-.151-.213c-.039-.1-.077-.176-.206-.2.026-.05.043-.083.059-.117l.043-.095a5.767,5.767,0,0,1,1.219,2.686,6.07,6.07,0,0,1-.906,4.43Z" transform="translate(-387.428 747.075)" fill="#ff9c39"/>
</svg>
