<svg xmlns="http://www.w3.org/2000/svg" width="17" height="17" viewBox="0 0 17 17">
  <g id="_211633_calendar_icon" data-name="211633_calendar_icon" transform="translate(-32 -32)">
    <path id="Path_22742" data-name="Path 22742" d="M47.82,64H46.571v1.544a1.691,1.691,0,0,1-1.791,1.491,1.753,1.753,0,0,1-1.852-1.491V64H38.071v1.544a1.858,1.858,0,0,1-3.643,0V64H33.18A1.152,1.152,0,0,0,32,65.116V78.681a1.143,1.143,0,0,0,1.18,1.1H47.82A1.143,1.143,0,0,0,49,78.678V65.116A1.152,1.152,0,0,0,47.82,64Zm-.641,13.505a.474.474,0,0,1-.486.455l-12.39,0a.484.484,0,0,1-.482-.463V68.717a.483.483,0,0,1,.5-.467H46.678a.478.478,0,0,1,.5.459Z" transform="translate(0 -30.786)" fill="#707070"/>
    <path id="Path_22743" data-name="Path 22743" d="M114.429,34.429a1.213,1.213,0,0,1-1.214,1.214h0A1.213,1.213,0,0,1,112,34.429V33.214A1.213,1.213,0,0,1,113.214,32h0a1.213,1.213,0,0,1,1.214,1.214Z" transform="translate(-76.964)" fill="#707070"/>
    <path id="Path_22744" data-name="Path 22744" d="M338.429,34.429a1.213,1.213,0,0,1-1.214,1.214h0A1.213,1.213,0,0,1,336,34.429V33.214A1.213,1.213,0,0,1,337.214,32h0a1.213,1.213,0,0,1,1.214,1.214Z" transform="translate(-292.464)" fill="#707070"/>
  </g>
</svg>
