<svg xmlns="http://www.w3.org/2000/svg" width="25.527" height="22.937" viewBox="0 0 25.527 22.937">
  <g id="_353403_cart_icon" data-name="353403_cart_icon" transform="translate(-6.693 -9.261)">
    <path id="Path_12" data-name="Path 12" d="M40.99,17.837H26.1a.609.609,0,0,0-.617.838l2.355,6.9a1.02,1.02,0,0,0,.916.674h9.759a1.018,1.018,0,0,0,.915-.674l2.052-7.061A.49.49,0,0,0,40.99,17.837Z" transform="translate(-9.297 -4.251)" fill="#9d9d9d"/>
    <circle id="Ellipse_2" data-name="Ellipse 2" cx="2.227" cy="2.227" r="2.227" transform="translate(15.927 27.716)" fill="#9d9d9d"/>
    <circle id="Ellipse_3" data-name="Ellipse 3" cx="2.227" cy="2.227" r="2.227" transform="translate(25.35 27.744)" fill="#9d9d9d"/>
    <path id="Path_13" data-name="Path 13" d="M30.25,24.262H17.227l-5.214-15H7.954a1.261,1.261,0,1,0,0,2.522H10.22l5.214,15H30.25a1.261,1.261,0,0,0,0-2.522Z" fill="#9d9d9d"/>
  </g>
</svg>
