<svg xmlns="http://www.w3.org/2000/svg" width="46.939" height="43.053" viewBox="0 0 46.939 43.053">
  <path id="_5310239_education_graduation_hat_icon" data-name="5310239_education_graduation_hat_icon" d="M31.555,23.626a.6.6,0,0,1,0,.061c.01,1.112-1.318,2.447-3.461,3.483a20.922,20.922,0,0,1-9.148,1.839A20.922,20.922,0,0,1,9.8,27.17C7.66,26.134,6.332,24.8,6.341,23.687a.6.6,0,0,1,0-.061l.917-8.253a.581.581,0,0,1,.815-.466l9.788,4.388a2.658,2.658,0,0,0,2.172,0l9.787-4.387a.581.581,0,0,1,.815.466ZM37.116,7.889,20.036.232a2.658,2.658,0,0,0-2.172,0L.784,7.889a1.327,1.327,0,0,0,0,2.422l17.08,7.657a2.658,2.658,0,0,0,2.172,0l14.178-6.356v4.967a1.326,1.326,0,0,0-.664,1.148v8.627H36.2V17.727a1.325,1.325,0,0,0-.663-1.148V11.017l1.575-.706a1.327,1.327,0,0,0,0-2.422Z" transform="matrix(0.891, -0.454, 0.454, 0.891, 0, 17.207)" fill="#fff"/>
</svg>
