<svg xmlns="http://www.w3.org/2000/svg" width="28.556" height="32.635" viewBox="0 0 28.556 32.635">
  <path id="_8664950_book_education_icon" data-name="8664950_book_education_icon" d="M28.556,21.417V3.06A3.06,3.06,0,0,0,25.5,0H6.119A6.119,6.119,0,0,0,0,6.119v20.4a6.119,6.119,0,0,0,6.119,6.119h20.4a1.979,1.979,0,0,0,1.02-3.71V23.74A3.243,3.243,0,0,0,28.556,21.417ZM9.121,8.159H21.36a1.037,1.037,0,0,1,1.077,1.02,1.023,1.023,0,0,1-1.02,1.02H9.121a1.022,1.022,0,0,1,0-2.04Zm0,4.079H21.36a1.037,1.037,0,0,1,1.077,1.02,1.023,1.023,0,0,1-1.02,1.02H9.121a1.022,1.022,0,0,1,0-2.04ZM24.476,28.556H6.119a2.04,2.04,0,0,1,0-4.079H24.476Z" fill="#aeaeae"/>
</svg>
