<svg id="Layer_x0020_1" xmlns="http://www.w3.org/2000/svg" width="22.117" height="33.731" viewBox="0 0 22.117 33.731">
  <path id="Path_27" data-name="Path 27" d="M16.171,3.334v9.558a10.417,10.417,0,0,1,4,3.612,10.706,10.706,0,0,1,1.945,6.168,11.093,11.093,0,0,1-3.279,7.835,10.914,10.914,0,0,1-7.78,3.223A11,11,0,0,1,0,22.673,11.224,11.224,0,0,1,1.889,16.5v-.056a11.343,11.343,0,0,1,4.057-3.556V3.334H3.779V0H18.338V3.334H16.171ZM10.392,26.84a.937.937,0,0,1,.945.945.946.946,0,0,1-1.889,0,.937.937,0,0,1,.945-.945ZM7.057,23.617a1.85,1.85,0,0,1,1.834,1.834,1.835,1.835,0,0,1-3.668,0A1.85,1.85,0,0,1,7.057,23.617ZM9.28,3.334V15.06L8.224,15.5a7.213,7.213,0,0,0-3.556,2.834,7.289,7.289,0,0,0-1.334,4.334,7.722,7.722,0,0,0,2.223,5.5,7.867,7.867,0,0,0,5.5,2.278A7.735,7.735,0,0,0,16.5,28.174a7.543,7.543,0,0,0,2.278-5.5,7.692,7.692,0,0,0-1.334-4.334h0A7.465,7.465,0,0,0,13.893,15.5l-1.056-.445V3.334H9.28Z" transform="translate(0)" fill="#aeaeae"/>
</svg>
