<svg xmlns="http://www.w3.org/2000/svg" width="29.396" height="28.262" viewBox="0 0 29.396 28.262">
  <path id="Path_28" data-name="Path 28" d="M52.607,28.6,39.04,24.077a1.2,1.2,0,0,0-.707,0L24.781,28.6h-.028l-.141.071H24.6l-.141.085c0,.014-.014.014-.028.028l-.113.1h0l-.1.113c0,.014-.014.014-.014.028l-.085.127c0,.014,0,.014-.014.028l-.057.127h0L24,29.461V29.5a.523.523,0,0,0-.014.17V40.979a1.131,1.131,0,1,0,2.261,0V31.242L31,32.825a8.931,8.931,0,0,0-1.357,4.762,9.044,9.044,0,0,0,4.24,7.659,13.581,13.581,0,0,0-6.571,5.285A1.145,1.145,0,0,0,27.65,52.1a1.116,1.116,0,0,0,1.554-.325,11.305,11.305,0,0,1,18.965,0,1.131,1.131,0,0,0,.947.509,1.06,1.06,0,0,0,.608-.184,1.145,1.145,0,0,0,.339-1.569,13.581,13.581,0,0,0-6.571-5.285,9.044,9.044,0,0,0,4.24-7.659,8.931,8.931,0,0,0-1.357-4.762l6.232-2.077a1.131,1.131,0,0,0,0-2.148ZM38.687,44.37A6.783,6.783,0,0,1,31.9,37.587a6.868,6.868,0,0,1,1.314-4.028l5.116,1.71a1.13,1.13,0,0,0,.707,0l5.116-1.71a6.868,6.868,0,0,1,1.314,4.028A6.783,6.783,0,0,1,38.687,44.37Z" transform="translate(-23.988 -24.024)" fill="#aeaeae"/>
</svg>
