<svg xmlns="http://www.w3.org/2000/svg" width="33.554" height="27.621" viewBox="0 0 33.554 27.621">
  <g id="_753116_playground_kids_park_play_swing_icon" data-name="753116_playground_kids_park_play_swing_icon" transform="translate(-0.112 -5.751)">
    <path id="Path_55" data-name="Path 55" d="M33.666,35.852A.821.821,0,0,0,32.6,35l-.009-.015a.332.332,0,0,0-.144.047c-.017.007-.032.017-.048.026a1.808,1.808,0,0,0-.17.114c-.03.025-.064.045-.093.074a8.049,8.049,0,0,0-1.018,1.062l0-.009A18.115,18.115,0,0,1,2.5,36.049c-.006-.007-.011-.009-.018-.017a10.829,10.829,0,0,0-.757-.917,1.03,1.03,0,0,0-.076-.075,1.21,1.21,0,0,0-.112-.1c-.017-.012-.032-.008-.048-.013a.907.907,0,0,0-.449-.132.927.927,0,0,0-.927.927.9.9,0,0,0,.176.514.231.231,0,0,0,0,.024,18.126,18.126,0,0,0,32.687,1.12c.011-.018.022-.031.033-.05a11.889,11.889,0,0,0,.578-1.153c.009-.023.02-.047.028-.071.017-.045.025-.067.025-.067l-.011,0A.742.742,0,0,0,33.666,35.852Z" transform="translate(0 -13.766)" fill="#b2b2b2"/>
    <path id="Path_56" data-name="Path 56" d="M8.314,13.787l.008.005s.711-.406.277.557c-.008.018-.009.028-.015.044a10.923,10.923,0,0,0-.3,8.914c.028.068.079.176.144.295h0s.027.048.077.123a2.53,2.53,0,0,0,.407.521,5,5,0,0,0,2.842,1.577,2.574,2.574,0,0,0,.9.091l.027,0,0,0a1.3,1.3,0,0,0,.7-.269c.009-.008.017-.01.026-.017a7.169,7.169,0,0,1,4.866-1.973,8.105,8.105,0,0,1,5.1,2.322l0,0a1.533,1.533,0,0,0,1.547.2c.255-.106.519-.22.789-.34a1.879,1.879,0,0,0,.973-1.314,9.244,9.244,0,0,0,.059-1,10.18,10.18,0,0,0-1.342-5.087v0s-.377-.633.178-.952a2.583,2.583,0,0,1,2.075-.085,5.008,5.008,0,0,1,.518.266,5.956,5.956,0,0,1,1.959,3.1c.034.17.066.343.086.525h0a.018.018,0,0,1,0,.009c.008.048.128.7.8.11l1.821-1.61s0,0,0,0a1.106,1.106,0,0,0,.357-1.062,5.559,5.559,0,0,0-5.169-4.392,4.969,4.969,0,0,0-3.5,1.5c-.014.011-.025.016-.041.029-.629.544-1.07.167-1.07.167h0a7.862,7.862,0,0,0-5.143-1.961,7.47,7.47,0,0,0-1.963.273c-.018,0-.027,0-.045,0-.966.2-.581-.651-.581-.651l-.015,0a7.556,7.556,0,0,0-.284-5.339C12.509,3.993,7.174,6.246,5.565,7.065a.452.452,0,0,0-.275.642l.022.042,0,0c.108.216.258.521.465.952a.54.54,0,0,1-.15.681s0,0,0,0c-1.111.746-2.361,2.11-1.4,3.61C5.124,14.4,6.778,14.428,8.314,13.787Zm5.845-.5.023-.136c-.007.046-.015.091-.023.136Z" transform="translate(-1.787)" fill="#b2b2b2"/>
  </g>
</svg>
