<svg xmlns="http://www.w3.org/2000/svg" width="27.174" height="27.174" viewBox="0 0 27.174 27.174">
  <path id="_9054987_bx_support_icon" data-name="9054987_bx_support_icon" d="M15.587,2A13.6,13.6,0,0,0,2,15.587v5.629a2.628,2.628,0,0,0,2.717,2.523H6.076A1.359,1.359,0,0,0,7.435,22.38V15.393a1.359,1.359,0,0,0-1.359-1.359H4.842a10.854,10.854,0,0,1,21.489,0H25.1a1.359,1.359,0,0,0-1.359,1.359v8.346a2.72,2.72,0,0,1-2.717,2.717H18.3V25.1H12.87v4.076h8.152a5.44,5.44,0,0,0,5.435-5.435,2.628,2.628,0,0,0,2.717-2.523V15.587A13.6,13.6,0,0,0,15.587,2Z" transform="translate(-2 -2)" fill="#b2b2b2"/>
</svg>
