<svg xmlns="http://www.w3.org/2000/svg" width="44.234" height="48.745" viewBox="0 0 44.234 48.745">
  <path id="_8726156_java_script_icon" data-name="8726156_java_script_icon" d="M31.082,33.4a9.9,9.9,0,0,1-5.331-.971,3.507,3.507,0,0,1-1.305-2.462.541.541,0,0,0-.552-.535c-.772-.009-1.543-.007-2.315,0a.515.515,0,0,0-.564.454,5.7,5.7,0,0,0,1.835,4.5,9.728,9.728,0,0,0,5.431,2.043,19.648,19.648,0,0,0,6.174-.262,7.619,7.619,0,0,0,4.09-2.2,5.7,5.7,0,0,0,.965-5.437,4.555,4.555,0,0,0-3-2.668c-3.122-1.1-6.494-1.012-9.676-1.845-.552-.174-1.228-.363-1.474-.948a2.083,2.083,0,0,1,.693-2.327,6.234,6.234,0,0,1,3.287-.818,9.921,9.921,0,0,1,4.592.657,3.5,3.5,0,0,1,1.674,2.418.592.592,0,0,0,.555.574c.766.016,1.532,0,2.3.005a.555.555,0,0,0,.6-.409,5.932,5.932,0,0,0-2.892-5.133,14.329,14.329,0,0,0-7.844-1.2h0a8.544,8.544,0,0,0-5.3,2.131,5.3,5.3,0,0,0-1.059,5.515,4.7,4.7,0,0,0,2.97,2.588c3.111,1.124,6.521.763,9.662,1.757.612.208,1.325.525,1.513,1.207a2.415,2.415,0,0,1-.657,2.306A7.24,7.24,0,0,1,31.082,33.4ZM45.264,12.815Q36.153,7.663,27.037,2.52a4.088,4.088,0,0,0-3.991,0L4.886,12.774a3.759,3.759,0,0,0-1.96,3.273V36.7A3.784,3.784,0,0,0,4.961,40c1.739.947,3.429,1.99,5.2,2.873a7.467,7.467,0,0,0,6.674.183,5.185,5.185,0,0,0,2.425-4.682c.014-6.816,0-13.633.005-20.449a.536.536,0,0,0-.505-.619c-.774-.013-1.548-.007-2.322,0a.51.51,0,0,0-.556.521c-.01,6.773,0,13.547-.006,20.321A2.292,2.292,0,0,1,14.391,40.3a3.735,3.735,0,0,1-3.022-.4L6.535,37.168a.578.578,0,0,1-.328-.573q0-10.221,0-20.442a.631.631,0,0,1,.383-.634q9.05-5.1,18.1-10.205a.629.629,0,0,1,.711,0q9.05,5.1,18.1,10.2a.639.639,0,0,1,.381.637q0,10.22,0,20.441a.59.59,0,0,1-.324.581Q34.64,42.214,25.719,47.238c-.284.158-.62.413-.953.221-1.558-.882-3.1-1.8-4.649-2.688a.5.5,0,0,0-.56-.034,12.718,12.718,0,0,1-2.15,1c-.336.136-.75.175-.982.487a3.207,3.207,0,0,0,1.051.757q2.723,1.577,5.45,3.151a3.972,3.972,0,0,0,4.035.112Q36.042,45.128,45.123,40a3.793,3.793,0,0,0,2.037-3.3V16.047a3.752,3.752,0,0,0-1.9-3.232Z" transform="translate(-2.925 -2)" fill="#6563ff"/>
</svg>
