<svg xmlns="http://www.w3.org/2000/svg" width="44" height="45.698" viewBox="0 0 44 45.698">
  <g id="Day_9" data-name="Day 9" transform="translate(-4.069 -3)">
    <path id="_Path_" data-name="&lt;Path&gt;" d="M45.456,24.729V42.676H8V24.729a18.728,18.728,0,0,1,37.456,0Z" transform="translate(-0.659 -0.44)" fill="#1d9eef"/>
    <path id="_Path_2" data-name="&lt;Path&gt;" d="M39.993,24.785V42.733H8V24.785A18.727,18.727,0,0,1,23.994,6.26a18.728,18.728,0,0,1,16,18.525Z" transform="translate(-0.659 -0.497)" fill="#1daeef"/>
    <path id="_Path_3" data-name="&lt;Path&gt;" d="M18,47.069V29.121A18.829,18.829,0,0,1,18.258,26" transform="translate(-2.856 -4.833)" fill="none" stroke="#001c63" stroke-linecap="round" stroke-linejoin="round" stroke-width="2"/>
    <ellipse id="_Path_4" data-name="&lt;Path&gt;" cx="13" cy="13.5" rx="13" ry="13.5" transform="translate(14.069 13.849)" fill="#3f87bf"/>
    <path id="_Rectangle_" data-name="&lt;Rectangle&gt;" d="M26.728,6h0A18.728,18.728,0,0,1,45.456,24.728V42.675H8V24.728A18.728,18.728,0,0,1,26.728,6Z" transform="translate(-0.659 -0.439)" fill="none" stroke="#001c63" stroke-linecap="round" stroke-linejoin="round" stroke-width="2"/>
    <circle id="_Path_5" data-name="&lt;Path&gt;" cx="13" cy="13" r="13" transform="translate(13.069 12.849)" fill="#8ecfff" stroke="#001c63" stroke-linecap="round" stroke-linejoin="round" stroke-width="2"/>
    <path id="_Path_6" data-name="&lt;Path&gt;" d="M39,29.26a9.723,9.723,0,1,1-2.5-6.516A9.723,9.723,0,0,1,39,29.26Z" transform="translate(-3.196 -3.411)" fill="#4dc4e1"/>
    <path id="_Path_7" data-name="&lt;Path&gt;" d="M37.432,26.923a9.738,9.738,0,0,1-16.964,6.516A9.738,9.738,0,0,1,36.5,22.748,9.715,9.715,0,0,1,37.432,26.923Z" transform="translate(-3.193 -3.414)" fill="#4dd7f7"/>
    <circle id="_Path_8" data-name="&lt;Path&gt;" cx="9.731" cy="9.731" r="9.731" transform="translate(16.338 16.118)" fill="none" stroke="#001c63" stroke-linecap="round" stroke-linejoin="round" stroke-width="2"/>
    <path id="_Path_9" data-name="&lt;Path&gt;" d="M30.682,23.53A6.586,6.586,0,0,0,26,25.457" transform="translate(-4.613 -4.29)" fill="none" stroke="#fff" stroke-linecap="round" stroke-linejoin="round" stroke-width="2"/>
    <rect id="_Rectangle_2" data-name="&lt;Rectangle&gt;" width="4" height="21" rx="2" transform="translate(5.069 18.849)" fill="#8ecfff" stroke="#001c63" stroke-linecap="round" stroke-linejoin="round" stroke-width="2"/>
    <rect id="_Rectangle_3" data-name="&lt;Rectangle&gt;" width="4" height="21" rx="2" transform="translate(43.069 18.849)" fill="#8ecfff" stroke="#001c63" stroke-linecap="round" stroke-linejoin="round" stroke-width="2"/>
    <path id="_Path_10" data-name="&lt;Path&gt;" d="M46.577,58.462H6L7.561,53H45.016Z" transform="translate(-0.22 -10.764)" fill="#8ecfff"/>
    <path id="_Path_11" data-name="&lt;Path&gt;" d="M56.023,58.462H49V53h5.462Z" transform="translate(-9.666 -10.764)" fill="#1d9eef"/>
    <path id="_Path_12" data-name="&lt;Path&gt;" d="M46.577,58.462H6L7.561,53H45.016Z" transform="translate(-0.22 -10.764)" fill="none" stroke="#001c63" stroke-linecap="round" stroke-linejoin="round" stroke-width="2"/>
    <rect id="_Rectangle_4" data-name="&lt;Rectangle&gt;" width="11.705" height="3.902" rx="1.951" transform="translate(20.216 4)" fill="#065dc6" stroke="#001c63" stroke-linecap="round" stroke-linejoin="round" stroke-width="2"/>
    <circle id="_Path_13" data-name="&lt;Path&gt;" cx="1" cy="1" r="1" transform="translate(10.069 43.849)" fill="#4580ff" stroke="#001c63" stroke-linecap="round" stroke-linejoin="round" stroke-width="1"/>
    <circle id="_Path_14" data-name="&lt;Path&gt;" cx="1.17" cy="1.17" r="1.17" transform="translate(17.29 43.797)" fill="#4580ff" stroke="#001c63" stroke-linecap="round" stroke-linejoin="round" stroke-width="1"/>
    <circle id="_Path_15" data-name="&lt;Path&gt;" cx="1.17" cy="1.17" r="1.17" transform="translate(24.898 43.797)" fill="#4580ff" stroke="#001c63" stroke-linecap="round" stroke-linejoin="round" stroke-width="1"/>
    <circle id="_Path_16" data-name="&lt;Path&gt;" cx="1.17" cy="1.17" r="1.17" transform="translate(32.506 43.797)" fill="#4580ff" stroke="#001c63" stroke-linecap="round" stroke-linejoin="round" stroke-width="1"/>
    <circle id="_Path_17" data-name="&lt;Path&gt;" cx="1" cy="1" r="1" transform="translate(40.069 43.849)" fill="#4580ff" stroke="#001c63" stroke-linecap="round" stroke-linejoin="round" stroke-width="1"/>
    <line id="_Path_18" data-name="&lt;Path&gt;" y1="13" transform="translate(7.069 5.849)" fill="#8ecfff" stroke="#001c63" stroke-linecap="round" stroke-linejoin="round" stroke-width="2"/>
    <circle id="_Path_19" data-name="&lt;Path&gt;" cx="2.5" cy="2.5" r="2.5" transform="translate(5.069 4.849)" fill="#00d07c" stroke="#001c63" stroke-linecap="round" stroke-linejoin="round" stroke-width="2"/>
  </g>
</svg>
