<svg xmlns="http://www.w3.org/2000/svg" width="48.079" height="49.5" viewBox="0 0 48.079 49.5">
  <path id="_8666409_laravel_icon" data-name="8666409_laravel_icon" d="M55.386,11.2a.554.554,0,0,0-.027-.066.824.824,0,0,0-.051-.121.579.579,0,0,0-.052-.069.9.9,0,0,0-.07-.091c-.022-.021-.05-.039-.074-.058a.854.854,0,0,0-.087-.066L45.718,5.369a.773.773,0,0,0-.773,0L35.637,10.73h0a.78.78,0,0,0-.085.067.743.743,0,0,0-.075.058.8.8,0,0,0-.07.09c-.016.023-.038.044-.052.069a.937.937,0,0,0-.05.121c-.008.022-.02.043-.027.066a.781.781,0,0,0-.027.2V21.575l-7.756,4.466V6.132a.754.754,0,0,0-.027-.2c-.006-.023-.019-.044-.027-.066a.807.807,0,0,0-.05-.12.87.87,0,0,0-.052-.07.905.905,0,0,0-.07-.091.914.914,0,0,0-.075-.058.947.947,0,0,0-.085-.066h0L17.8.1a.773.773,0,0,0-.773,0L7.718,5.46h0a.63.63,0,0,0-.085.067.755.755,0,0,0-.076.058.788.788,0,0,0-.069.09c-.017.024-.039.044-.053.07a.762.762,0,0,0-.049.12.624.624,0,0,0-.028.065.791.791,0,0,0-.027.2V38.007a.773.773,0,0,0,.387.672L26.327,49.394a.854.854,0,0,0,.129.052c.02.008.04.019.061.025a.766.766,0,0,0,.4,0c.019,0,.036-.015.053-.021a.831.831,0,0,0,.135-.056L45.718,38.679a.773.773,0,0,0,.387-.672V27.83L55.023,22.7a.773.773,0,0,0,.387-.677V11.4A.834.834,0,0,0,55.386,11.2ZM17.411,1.669h0l7.753,4.462L17.41,10.6,9.658,6.132Zm8.532,5.8V26.933l-4.5,2.59L18.187,31.4V11.938l4.5-2.59Zm0,39.907L8.881,37.558V7.474l3.257,1.874,4.5,2.591v20.8a.671.671,0,0,0,.012.087.774.774,0,0,0,.015.114h0a.573.573,0,0,0,.037.087.617.617,0,0,0,.041.1h0a.826.826,0,0,0,.058.075.736.736,0,0,0,.064.081h0c.022.021.05.037.074.056a.864.864,0,0,0,.083.064h0l8.913,5.045Zm.773-10.264-7.74-4.381,8.13-4.68,8.92-5.135,7.747,4.46L38.087,30.62Zm17.839.442L27.492,47.382V38.457L40.13,31.245l4.425-2.528Zm0-11.517L41.3,24.168l-4.5-2.59V12.74l3.257,1.876,4.5,2.592Zm.773-10.178-7.754-4.464,7.754-4.463,7.752,4.462ZM46.1,26.037v-8.83l4.508-2.592,3.256-1.876v8.835h0Z" transform="translate(-7.33 0.002)" fill="#ff2e2e"/>
</svg>
