<svg xmlns="http://www.w3.org/2000/svg" width="48" height="48.268" viewBox="0 0 48 48.268">
  <g id="_x32_67-python" transform="translate(-28.946 -27.681)">
    <g id="Group_12993" data-name="Group 12993" transform="translate(28.946 27.68)">
      <path id="Path_22747" data-name="Path 22747" d="M46.393,50.15H57.5A5.6,5.6,0,0,0,63.05,44.5V33.909c0-3.015-2.537-5.271-5.552-5.781a34.274,34.274,0,0,0-11.1.01c-4.7.832-5.552,2.568-5.552,5.781v2.268H51.955v3.378H36.671A6.941,6.941,0,0,0,29.726,45.2a20.825,20.825,0,0,0,0,11.292c.79,3.286,2.672,5.635,5.906,5.635h3.816V57.054a7.06,7.06,0,0,1,6.945-6.9Z" transform="translate(-28.946 -27.68)" fill="#347ab4"/>
      <path id="Path_22748" data-name="Path 22748" d="M193.036,161.692c-.8-3.213-2.319-5.635-5.552-5.635h-4.169v4.928a7.131,7.131,0,0,1-6.946,7.049h-11.1a5.666,5.666,0,0,0-5.552,5.646v10.585c0,3.015,2.62,4.783,5.552,5.646a18.685,18.685,0,0,0,11.1,0c2.8-.811,5.552-2.443,5.552-5.646v-2.219H170.827V178.62h16.656c3.234,0,4.429-2.256,5.552-5.635,1.165-3.483,1.113-6.831,0-11.292Z" transform="translate(-145.89 -142.487)" fill="#ffca1d"/>
      <path id="Path_22749" data-name="Path 22749" d="M170.446,55.232a2.031,2.031,0,1,1,2.006-2.026A2.017,2.017,0,0,1,170.446,55.232Z" transform="translate(-153.695 -48.688)" fill="#fff"/>
      <path id="Path_22750" data-name="Path 22750" d="M297.938,425.714a2.031,2.031,0,1,1,2.006-2.026A2.017,2.017,0,0,1,297.938,425.714Z" transform="translate(-267.711 -380.01)" fill="#fff"/>
    </g>
  </g>
</svg>
