<svg xmlns="http://www.w3.org/2000/svg" width="30.398" height="28.385" viewBox="0 0 30.398 28.385">
  <path id="Path_22733" data-name="Path 22733" d="M40.5,40.312a3.062,3.062,0,1,1-3.062-3.062A3.062,3.062,0,0,1,40.5,40.312Zm-18.375,0a3.062,3.062,0,1,0-3.062,3.062A3.062,3.062,0,0,0,22.125,40.312Zm2.187-2.187a3.062,3.062,0,1,0-3.062-3.062A3.062,3.062,0,0,0,24.312,38.125Zm7.875,0a3.062,3.062,0,1,0-3.062-3.062A3.062,3.062,0,0,0,32.187,38.125Zm2.527,6.65a3.861,3.861,0,0,1-1.848-2.308,4.8,4.8,0,0,0-9.231,0A3.883,3.883,0,0,1,21.8,44.775,4.375,4.375,0,0,0,23.875,53a4.43,4.43,0,0,0,1.7-.339,7.022,7.022,0,0,1,5.348-.011,4.331,4.331,0,0,0,1.706.35,4.375,4.375,0,0,0,2.089-8.225Z" transform="translate(-26.405 -15.361) rotate(-21)" fill="#69c296"/>
</svg>
