<svg xmlns="http://www.w3.org/2000/svg" width="32.184" height="24.735" viewBox="0 0 32.184 24.735">
  <g id="Group_12966" data-name="Group 12966" transform="translate(-55.597 -38.604)">
    <path id="Union_2" data-name="Union 2" d="M17.924,12.286C18.029,9.47,23.268.112,26.318.008a18.5,18.5,0,0,1,5.865.86,7.14,7.14,0,0,0-4.431,5.37c-.626,4.041-3.467,2.268-3.519,3.1s1.46.965,1.434,1.8-.774.717-.67,1.212.311.3.344.854-1,.345-.4,1.4a2.739,2.739,0,0,1-.13,2.372S17.82,15.1,17.924,12.286ZM7.247,14.606c.594-1.055-.437-.847-.4-1.4s.24-.359.344-.854-.644-.378-.67-1.212S8,10.174,7.951,9.34s-2.894.938-3.519-3.1A7.141,7.141,0,0,0,0,.868,18.5,18.5,0,0,1,5.865.008c3.05.1,8.29,9.463,8.394,12.278s-6.882,4.692-6.882,4.692A2.739,2.739,0,0,1,7.247,14.606Z" transform="translate(55.597 44.057)" fill="#5494ff"/>
    <path id="Union_1" data-name="Union 1" d="M14.032,10.619C15.117,2.858,22.911.147,24.2.045a9.21,9.21,0,0,1,1.932,0s-3.626,3.423-3.49,6.3-3.287,4.88-3.66,6.1.839,1.194,1.007,2.135-.353.972-.338,1.631.344.576.4,1-.548.456-.562.772.372.793.464,1.137.035,3.274.035,3.274S12.948,18.379,14.032,10.619ZM6.18,19.128c.091-.344.477-.822.463-1.137s-.618-.344-.562-.772.384-.345.4-1-.5-.689-.338-1.631,1.379-.915,1.007-2.135-3.8-3.219-3.66-6.1S0,.045,0,.045a9.209,9.209,0,0,1,1.932,0c1.288.1,9.082,2.813,10.167,10.573S6.144,22.4,6.144,22.4,6.088,19.472,6.18,19.128Z" transform="translate(58.624 40.938)" fill="#6656fe"/>
    <circle id="Ellipse_1" data-name="Ellipse 1" cx="2.662" cy="2.662" r="2.662" transform="translate(68.986 38.605)" fill="#bc5bdf"/>
  </g>
</svg>
