<svg xmlns="http://www.w3.org/2000/svg" xmlns:xlink="http://www.w3.org/1999/xlink" width="84.674" height="26.403" viewBox="0 0 84.674 26.403">
  <defs>
    <linearGradient id="linear-gradient" x1="0.713" y1="0.009" x2="0.292" y2="0.901" gradientUnits="objectBoundingBox">
      <stop offset="0.131" stop-color="#e87015"/>
      <stop offset="0.781" stop-color="#d43616"/>
    </linearGradient>
    <linearGradient id="linear-gradient-2" x1="0.763" y1="0.061" x2="0.148" y2="0.934" gradientUnits="objectBoundingBox">
      <stop offset="0.358" stop-color="#ec8012"/>
      <stop offset="0.577" stop-color="#df5914"/>
      <stop offset="0.761" stop-color="#d73f15"/>
      <stop offset="0.872" stop-color="#d43616"/>
    </linearGradient>
    <linearGradient id="linear-gradient-3" x1="0.708" y1="0.099" x2="0.287" y2="0.991" gradientUnits="objectBoundingBox">
      <stop offset="0.508" stop-color="#e81"/>
      <stop offset="0.93" stop-color="#d43616"/>
    </linearGradient>
    <linearGradient id="linear-gradient-4" x1="0.852" y1="0.066" x2="0.237" y2="0.939" gradientUnits="objectBoundingBox">
      <stop offset="0.176" stop-color="#e81"/>
      <stop offset="0.361" stop-color="#ed8411"/>
      <stop offset="0.888" stop-color="#cc1f16"/>
    </linearGradient>
  </defs>
  <g id="Group_2128" data-name="Group 2128" transform="translate(-146.237 -164.644)">
    <g id="Group_3" data-name="Group 3" transform="translate(146.237 164.644)">
      <g id="Group_1" data-name="Group 1" transform="translate(5.962 6.391)">
        <path id="Path_2" data-name="Path 2" d="M266.535,420.9a10,10,0,0,0,9.9,9.9h.206a6.945,6.945,0,0,0-.1-13.889,3.883,3.883,0,0,1,3.883,3.883,6.944,6.944,0,1,1-13.889.1Z" transform="translate(-266.532 -410.788)" fill="url(#linear-gradient)"/>
        <path id="Path_3" data-name="Path 3" d="M389.966,362.09a3.883,3.883,0,0,1,3.883-3.883,6.944,6.944,0,1,1,.1,13.889,10,10,0,0,0,9.9-9.9v-.206a6.944,6.944,0,1,0-13.889.1Z" transform="translate(-383.842 -352.084)" fill="url(#linear-gradient-2)"/>
        <path id="Path_4" data-name="Path 4" d="M328.249,300.413a6.939,6.939,0,0,0,6.945,6.943,3.883,3.883,0,0,1-3.883-3.883,6.944,6.944,0,1,1,13.889-.1,10,10,0,0,0-9.9-9.9h-.206a6.939,6.939,0,0,0-6.84,6.943Z" transform="translate(-325.185 -293.465)" fill="url(#linear-gradient-3)"/>
        <path id="Path_5" data-name="Path 5" d="M266.519,303.485v.1a6.944,6.944,0,0,0,13.889-.1,3.883,3.883,0,0,1-3.883,3.883,6.944,6.944,0,1,1-.1-13.889,10,10,0,0,0-9.9,9.9C266.52,303.416,266.519,303.451,266.519,303.485Z" transform="translate(-266.516 -293.479)" fill="url(#linear-gradient-4)"/>
      </g>
      <g id="Group_2" data-name="Group 2" transform="translate(0 0)">
        <path id="Path_6" data-name="Path 6" d="M236.732,235.974l-5.715.793.706,1.513.492,1.056c.554,1.187,3.24,1.107,6-.182s4.55-3.3,4-4.483c0-.009-.012-.017-.016-.026l-1.187-2.542Z" transform="translate(-226.813 -228.755)"/>
        <path id="Path_7" data-name="Path 7" d="M146.237,172.465l2.083-.194v-.4l.63-.361.139.05-.5.4.031.281s-.031,3.253.762,4.463a1.807,1.807,0,0,0,1.586-.74l-1.445-3.653-.138-.3,1.056-.817.012.244-.748.7.475-.044,5.714-.792,4.28-3.872,2.816-2.785-9.88.685Z" transform="translate(-146.237 -164.644)"/>
      </g>
    </g>
    <g id="Group_7" data-name="Group 7" transform="translate(177.148 168.168)">
      <g id="Group_5" data-name="Group 5" transform="translate(2.32 0)">
        <path id="Path_8" data-name="Path 8" d="M1748.534,343.584a1.488,1.488,0,1,1,0,2.976A1.488,1.488,0,0,1,1748.534,343.584Z" transform="translate(-1700.908 -338.23)" fill="#e76c2d"/>
        <g id="Group_4" data-name="Group 4" transform="translate(0)">
          <path id="Path_1" data-name="Path 1" d="M820.513,235.764a4.161,4.161,0,1,0,4.161,4.161h0A4.159,4.159,0,0,0,820.513,235.764Zm0,6.494a2.343,2.343,0,1,1,2.343-2.343A2.343,2.343,0,0,1,820.513,242.258Z" transform="translate(-816.352 -235.756)"/>
          <path id="Path_2-2" data-name="Path 2" d="M1397.943,235.764a4.161,4.161,0,1,0,4.161,4.161h0A4.163,4.163,0,0,0,1397.943,235.764Zm0,6.494a2.343,2.343,0,1,1,2.342-2.343h0a2.34,2.34,0,0,1-2.343,2.343Z" transform="translate(-1365.15 -235.756)"/>
          <path id="Path_3-2" data-name="Path 3" d="M1006.725,235.764h-1.813v4.756a1.741,1.741,0,0,1-1.739,1.738h-.413a1.741,1.741,0,0,1-1.739-1.738v-4.756h-1.814v4.756a3.557,3.557,0,0,0,3.552,3.552h.413a3.557,3.557,0,0,0,3.552-3.552Z" transform="translate(-990.144 -235.756)"/>
          <path id="Path_4-2" data-name="Path 4" d="M1171.864,237.419h2.108v-1.656h-4.01c-.007.02-.007.05-.014.069-.014,1.656-.028,3.3-.028,4.962a3.34,3.34,0,0,0,3.011,3.265c.287.027.582.006.883.006-.068-.643-.13-1.239-.2-1.834a.374.374,0,0,0-.027-.075h-.233a1.44,1.44,0,0,1-1.526-1.526c.007-1,.021-2,.027-3a2.021,2.021,0,0,0,.006-.212Z" transform="translate(-1152.392 -235.755)"/>
          <path id="Path_5-2" data-name="Path 5" d="M1275.321,235.764h-2.412l-2.847,3.661v-3.661h-2.014v8.324h2.014v-3.73l2.826,3.73h2.436l-3.356-4.25Z" transform="translate(-1245.653 -235.756)"/>
          <path id="Path_6-2" data-name="Path 6" d="M1578.729,240.4a2.7,2.7,0,0,0-1.307-1.108,6.392,6.392,0,0,0-1.649-.438l-.155-.027a1.894,1.894,0,0,1-.981-.424.425.425,0,0,1-.15-.349.452.452,0,0,1,.2-.328.834.834,0,0,1,.246-.124,2.306,2.306,0,0,1,1.177-.082.888.888,0,0,1,.807.826.193.193,0,0,0,.206.185h.034c.294-.006.589-.02.883-.027.178-.007.356-.007.534-.013a.291.291,0,0,0,.075-.013c.014,0,.021-.006.034-.006l.068-.014v-.069a2.465,2.465,0,0,0-.6-1.718,2.873,2.873,0,0,0-2-1.013,4.691,4.691,0,0,0-.541-.027,3.346,3.346,0,0,0-1.827.486,2.193,2.193,0,0,0-1.108,2.272,2.287,2.287,0,0,0,1.184,1.711,4.879,4.879,0,0,0,1.916.616,2.7,2.7,0,0,1,1.184.413.413.413,0,0,1,.171.555.452.452,0,0,1-.143.155.958.958,0,0,1-.309.164,2.192,2.192,0,0,1-.7.11,2.566,2.566,0,0,1-.719-.1.934.934,0,0,1-.8-.944.418.418,0,0,0-.021-.089c-.006-.013-.006-.034-.014-.05l-.013-.069h-1.8v.082a2.673,2.673,0,0,0,1.089,2.334,3.593,3.593,0,0,0,2.279.671h.123a3.37,3.37,0,0,0,1.894-.554,2.283,2.283,0,0,0,.733-2.991Z" transform="translate(-1535.11 -235.625)"/>
        </g>
      </g>
      <g id="Group_6" data-name="Group 6" transform="translate(0 12.004)">
        <path id="Path_9" data-name="Path 9" d="M775.331,484.3H771.3l-.866,1.931h-.8l3.3-7.227h.754l3.3,7.227h-.8Zm-.279-.62-1.734-3.882-1.734,3.882Z" transform="translate(-769.64 -478.935)"/>
        <path id="Path_10" data-name="Path 10" d="M927.253,481.424a3.629,3.629,0,0,1,3.788-3.675,3.5,3.5,0,0,1,2.641,1.053l-.485.485a2.864,2.864,0,0,0-2.138-.857,2.995,2.995,0,0,0,0,5.989,2.835,2.835,0,0,0,2.138-.867l.486.486a3.514,3.514,0,0,1-2.653,1.064,3.625,3.625,0,0,1-3.779-3.676Z" transform="translate(-919.435 -477.745)"/>
        <path id="Path_11" data-name="Path 11" d="M1068.482,484.3h-4.027l-.867,1.93h-.8l3.3-7.227h.753l3.3,7.227h-.805Zm-.279-.62-1.734-3.882-1.734,3.882Z" transform="translate(-1048.255 -478.935)"/>
        <path id="Path_12" data-name="Path 12" d="M1235.4,479h2.941a3.623,3.623,0,1,1,0,7.228H1235.4Zm2.9,6.566a2.959,2.959,0,1,0,0-5.905h-2.137v5.905Z" transform="translate(-1212.302 -478.935)"/>
        <path id="Path_13" data-name="Path 13" d="M1412.484,485.566v.661h-5.114V479h4.956v.661h-4.192v2.571h3.738v.65h-3.738v2.685Z" transform="translate(-1375.746 -478.935)"/>
        <path id="Path_14" data-name="Path 14" d="M1554.163,479v7.227h-.733v-5.782l-2.841,4.863h-.361l-2.841-4.832v5.751h-.733V479h.63l3.14,5.358,3.109-5.358Z" transform="translate(-1508.124 -478.935)"/>
        <path id="Path_15" data-name="Path 15" d="M1725.613,483.729v2.5h-.754v-2.5L1721.968,479h.815l2.478,4.058,2.479-4.058h.764Z" transform="translate(-1674.741 -478.935)"/>
      </g>
    </g>
  </g>
</svg>
