<svg xmlns="http://www.w3.org/2000/svg" width="20.676" height="29.925" viewBox="0 0 20.676 29.925">
  <g id="Group_41" data-name="Group 41" transform="translate(-383.417 -1049.435)">
    <path id="Path_1647" data-name="Path 1647" d="M700.043-704.646s-1.512-12.737,10.371-12.737,10.155,12.737,10.155,12.737Z" transform="translate(-316.564 1784.006)" fill="#b2b2b2"/>
    <path id="Path_1648" data-name="Path 1648" d="M721.843-754.127a7.74,7.74,0,0,1-10.264,2.55,7.731,7.731,0,0,1-3.29-10.014,7.713,7.713,0,0,1,8.909-4.286l-.138.039c.147.123.361.029.494.162l-.314.176a.987.987,0,0,1-.132-.081.214.214,0,0,0-.266-.013,1.265,1.265,0,0,1-.174.07l.01.142.13.046-.119.161.118.224-.392-.285c-.044.2.115.231.249.328h-.4l-.021.1c-.134.012-.269-.036-.4.032-.035.018-.1-.018-.157-.031.011.043.023.087.043.164-.056-.025-.1-.033-.105-.052-.022-.087-.079-.1-.168-.08l.069.168-.42.131-.006.125c-.168-.044-.043-.168-.091-.247.089-.016.187.081.268-.026a.347.347,0,0,0-.3-.176.165.165,0,0,1-.179-.089.067.067,0,0,0-.05-.027,1.543,1.543,0,0,0-.635.112,1.6,1.6,0,0,0-.641.474.292.292,0,0,1-.112.064c-.06.023-.147.02-.181.062s-.062.083-.089.122a1.5,1.5,0,0,1-.13.157c-.028.031-.021.094-.03.142.168.073.224-.129.364-.139l-.029.416c.306-.032.353-.336.568-.451a.274.274,0,0,1,.03-.234.274.274,0,0,1,.2-.124c.056-.015.1-.078.154-.119s.064-.056.212,0c-.06.036-.105.067-.154.092a.352.352,0,0,0-.2.3.74.74,0,0,0,.056.253c.033.112.023.15-.056.128-.1-.029-.134.038-.179.09-.066.078-.127.161-.184.235-.276-.022-.549.065-.8-.108l-.067.156a.566.566,0,0,0-.424.168,1.858,1.858,0,0,1-.5.242c-.112-.084-.209.07-.325.026-.018-.007-.063.052-.1.083.207.122.168.358-.135.553-.161-.022-.28-.2-.478-.13-.056.118-.112.251-.182.379a.984.984,0,0,0-.184.373l.168.209c.034,0,.1-.029.143-.01a.372.372,0,0,0,.44-.106.392.392,0,0,0,.1-.138.25.25,0,0,1,.2-.188.328.328,0,0,0,.228-.157.178.178,0,0,1,.148-.074c.182.056.331-.048.485-.075.122.148.24.3.361.44a.266.266,0,0,1,.034.349c.143-.022.155-.038.232-.312l.12.056c0-.026.006-.053-.005-.063a2.1,2.1,0,0,0-.217-.219c-.07-.056-.142-.1-.135-.207,0-.032-.061-.069-.1-.109l.04-.083c.072.024.15.029.19.069s.035.115.056.2a.344.344,0,0,0,.076.044.3.3,0,0,1,.245.356c-.011.086.076.184.127.3-.085.094-.029.182.067.258.19.02.1-.224.267-.217l-.173-.246a.448.448,0,0,1,.354-.1c-.017.094-.007.184.1.214l-.077.126.214.273c.119-.02.263.112.4-.047.147.184.3.044.455.035a1.2,1.2,0,0,1-.063.572.216.216,0,0,1-.124.173.216.216,0,0,1-.212-.017.3.3,0,0,0-.274-.01.405.405,0,0,1-.36-.006,2.673,2.673,0,0,0-.373-.117,1.316,1.316,0,0,1-.154-.069.581.581,0,0,0-.117-.056c-.123-.025-.168.01-.2.135-.039.163-.089.2-.246.152-.133-.039-.265-.071-.325-.232a.2.2,0,0,0-.258-.116c-.118.031-.179-.031-.241-.137l.145-.212c0-.069-.026-.133,0-.174.04-.073.005-.107-.056-.158-.089.056-.185.142-.3.051a1.764,1.764,0,0,0-.864.056.317.317,0,0,1-.388-.108,1.617,1.617,0,0,1-.276.224.54.54,0,0,0-.275.329.331.331,0,0,1-.185.224,1.359,1.359,0,0,0-.651.634c-.051.089-.119.168-.185.261a.956.956,0,0,1-.152.728.588.588,0,0,0-.069.457,2.536,2.536,0,0,0,.175.54.494.494,0,0,1,.023.216.427.427,0,0,0,.121.321,2.328,2.328,0,0,1,.208.286.216.216,0,0,0,.224.108.53.53,0,0,1,.469.1c.042.036.141.02.21.009a.886.886,0,0,0,.164-.065.336.336,0,0,1,.279-.007.336.336,0,0,1,.188.205c.073.153.082.168.229.132a.181.181,0,0,1,.15,0,.181.181,0,0,1,.095.116.652.652,0,0,0,.1.13c-.1.148.035.357-.143.5.062.12.112.232.175.336.029.049.076.108.125.119.137.029.162.134.2.24.027.083.056.168.086.248.063.187.126.374.184.56.01.032.008.09-.012.1-.112.083-.081.206-.1.314a.458.458,0,0,0,.107.429,2.65,2.65,0,0,1,.471.814.363.363,0,0,0,.127.176c.163.1.248.272.382.4a.172.172,0,0,1,.043.094.235.235,0,0,0,.093.185.235.235,0,0,0,.2.039.732.732,0,0,1,.237,0,1.728,1.728,0,0,0,.442,0,.8.8,0,0,0,.254-.12c.051-.028.092-.082.146-.1a.434.434,0,0,0,.3-.349.273.273,0,0,1,.216-.22,1.213,1.213,0,0,0,.134-.056c.079-.181-.02-.319-.092-.471a4.985,4.985,0,0,1,.924-.539c-.043-.2-.079-.372-.116-.543a.228.228,0,0,0-.034-.1.882.882,0,0,1-.192-.475.23.23,0,0,1,.078-.255,1.1,1.1,0,0,0,.3-.369,1.2,1.2,0,0,1,.375-.4.5.5,0,0,0,.119-.1.631.631,0,0,1,.285-.234.185.185,0,0,0,.1-.085c.071-.176.224-.31.241-.517a.817.817,0,0,1,.123-.25c.056-.112.1-.22.159-.339l-.112-.189c-.053.025-.1.043-.142.068a.754.754,0,0,1-.4.1,1.791,1.791,0,0,0-.263.033c-.224.032-.28-.018-.3-.254h0v-.006a.726.726,0,0,1-.147-.119.363.363,0,0,0-.375-.192c-.023-.09-.038-.161-.062-.228-.031-.089-.043-.187-.148-.234-.085-.037-.073-.125-.064-.2a.546.546,0,0,0-.095-.372c-.012-.018-.017-.044-.034-.056-.283-.2-.315-.534-.448-.816a.159.159,0,0,1,.129-.036.158.158,0,0,1,.111.075c.112.133.28.232.237.448.037.024.067.044.1.062a.3.3,0,0,1,.171.305.331.331,0,0,0,.138.3,2.221,2.221,0,0,1,.3.378,2.309,2.309,0,0,1,.124.224.139.139,0,0,0-.063.116.139.139,0,0,0,.063.116.244.244,0,0,1,.066.219h0v0a.38.38,0,0,0,.161.017,4.164,4.164,0,0,0,.424-.178c.2-.091.4-.186.6-.28a.125.125,0,0,0,.056-.036c.085-.159.25-.2.392-.273.087-.048.181-.088.212-.207.008-.033.087-.048.161-.085l-.071-.256.1-.022c.009-.056.015-.115.027-.172a.218.218,0,0,0-.009-.19.218.218,0,0,0-.154-.11c-.063-.021-.127-.037-.208-.06l-.052-.236c.131.027.23.048.33.067a.384.384,0,0,0,.339-.04.239.239,0,0,1,.1-.031c.123-.02.246-.037.385-.056a1.892,1.892,0,0,0,.2.177,2.168,2.168,0,0,0,.261.129c-.056.116.026.158.125.189a.233.233,0,0,0,.143-.227.347.347,0,0,1,.017.059,2.255,2.255,0,0,0,.368,1.029c.128.188.23.392.346.591.04.068.085.133.137.216a.7.7,0,0,0,.21-.526,3.633,3.633,0,0,1-.021-.545,1.28,1.28,0,0,1,.133-.368,2.055,2.055,0,0,0,.212-.668c.01-.137.118-.213.209-.309.181.056.258.228.385.339.144.126.064.329.206.476l.066-.231.039,0,.284.733c.1-.129-.056-.274.044-.419l.261.369a1.175,1.175,0,0,0-.017-.83c-.06-.134-.146-.258-.2-.392a2.768,2.768,0,0,1-.116-.376c-.009-.034-.011-.09.008-.107a.29.29,0,0,0,.082-.261,1.464,1.464,0,0,0-.076-.609c-.13-.273-.237-.56-.365-.833a1.243,1.243,0,0,0-.161-.208,1.321,1.321,0,0,1-.19-.268c-.049-.12-.1-.224-.259-.247.032-.062.056-.1.076-.148s.036-.08.056-.12a7.286,7.286,0,0,1,1.534,3.381A7.642,7.642,0,0,1,721.843-754.127Z" transform="translate(-321.479 1815.547)" fill="#b2b2b2"/>
  </g>
</svg>
