<svg xmlns="http://www.w3.org/2000/svg" width="25.163" height="27.174" viewBox="0 0 25.163 27.174">
  <path id="Path_1656" data-name="Path 1656" d="M1771.8-763.632l-12.582,7.663v19.508h5.289v-4.96a.332.332,0,0,0-.108-.26c-.611-.607-1.215-1.218-1.827-1.823a1.022,1.022,0,0,1-.359-.591v-.1c.012-.048.023-.1.038-.144a.683.683,0,0,1,.49-.469.684.684,0,0,1,.653.184q.772.762,1.533,1.536a.275.275,0,0,0,.217.09q1.191-.005,2.381,0a.25.25,0,0,0,.2-.082q.768-.775,1.542-1.544a.68.68,0,0,1,.647-.186.681.681,0,0,1,.49.461.68.68,0,0,1-.192.718c-.648.646-1.292,1.295-1.941,1.939a.359.359,0,0,0-.118.281q0,2.475,0,4.95h3.344v-9.332a.556.556,0,0,0-.18-.435c-1.02-1.013-2.03-2.035-3.052-3.046a1.7,1.7,0,0,1-.6-.987v-.166c.021-.08.04-.16.063-.239a1.142,1.142,0,0,1,.819-.783,1.142,1.142,0,0,1,1.09.308q1.289,1.273,2.56,2.565a.46.46,0,0,0,.362.151q1.988-.009,3.976,0a.417.417,0,0,0,.326-.138q1.283-1.295,2.576-2.58a1.137,1.137,0,0,1,1.08-.31,1.136,1.136,0,0,1,.819.77,1.134,1.134,0,0,1-.32,1.2c-1.082,1.078-2.158,2.162-3.242,3.239a.6.6,0,0,0-.2.469q.01,4.657,0,9.314h6.807V-756.6Zm-3.879,18.812a1.591,1.591,0,0,1-.466,1.127,1.59,1.59,0,0,1-1.127.466,1.589,1.589,0,0,1-1.134-.466,1.588,1.588,0,0,1-.465-1.134,1.581,1.581,0,0,1,.464-1.134,1.582,1.582,0,0,1,1.135-.462,1.581,1.581,0,0,1,1.134.466,1.58,1.58,0,0,1,.46,1.136Zm6.617-3.988a2.653,2.653,0,0,1-1.893-.778,2.654,2.654,0,0,1-.776-1.894,2.639,2.639,0,0,1,.776-1.893,2.638,2.638,0,0,1,1.9-.77,2.639,2.639,0,0,1,1.892.779,2.639,2.639,0,0,1,.767,1.9,2.658,2.658,0,0,1-.78,1.881,2.657,2.657,0,0,1-1.882.777Z" transform="translate(-1759.22 763.632)" fill="#b2b2b2"/>
</svg>
