<svg xmlns="http://www.w3.org/2000/svg" xmlns:xlink="http://www.w3.org/1999/xlink" width="29.251" height="27.459" viewBox="0 0 29.251 27.459">
  <defs>
    <clipPath id="clip-path">
      <rect id="Rectangle_46" data-name="Rectangle 46" width="29.251" height="27.459" fill="#b2b2b2"/>
    </clipPath>
  </defs>
  <g id="Group_36" data-name="Group 36" transform="translate(-500.185 -1050.91)">
    <g id="Group_35" data-name="Group 35" transform="translate(500.185 1050.91)">
      <g id="Group_34" data-name="Group 34" transform="translate(0 0)" clip-path="url(#clip-path)">
        <g id="Group_31" data-name="Group 31" clip-path="url(#clip-path)">
          <path id="Path_37" data-name="Path 37" d="M521.9,1061.59l-.018-.04a3.961,3.961,0,0,0-.721-1.463c-.3.235-.194,1.2-.141,1.544a2.528,2.528,0,0,1-.128,1.606c-.112-.118-.113-.394-.16-.564a1.814,1.814,0,0,0-.3-.566,1.8,1.8,0,0,1-.461-1.1,1.451,1.451,0,0,1-.945-.674,2.049,2.049,0,0,1-1.2.046.508.508,0,0,0-.058-.079c-.39.2-.651.009-.992-.217,0-.032-.005-.068-.009-.1-.181-.005-.31-.141-.5-.107.023.543.477.758.8,1.1a5.68,5.68,0,0,0,.587-.537c.229.276.725.416.733.8a2.561,2.561,0,0,1-.3,1.105,1.743,1.743,0,0,1-1.044.666,1.843,1.843,0,0,0-.572.241c-.136.1-.2.277-.366.354a3.952,3.952,0,0,1-.268-.778c-.092-.239-.327-.472-.388-.695-.218-.245-.4-.564-.636-.844-.17-.206-.467-.609-.756-.618-.043-.231-.5-.717-.748-.667.213-.137.605-.387.664-.594a2.6,2.6,0,0,0,0-.7,6.522,6.522,0,0,0-.911.216c-.032-.056-.1-.11-.112-.187-.143-.021-.159-.165-.161-.3-.059,0-.095-.038-.153-.035a.353.353,0,0,0-.2-.21,1.1,1.1,0,0,1,.187-.14c-.01-.163.31-.222.413-.26a.64.64,0,0,1,.528,0c.3.091.807.151,1-.162-.2-.067-.326-.227-.507-.309-.314-.14-.313.15-.617.136-.333-.863-1.062.123-.735.429-.186.136-.189.109-.454.094a.678.678,0,0,0-.372.052c.042.142.286.5.1.663-.289.252-.375-.2-.4-.367-.237-.1-.231-.485-.479-.624-.338-.189-.427-.192-.544-.589-.217-.035-.114.2-.082.3a.54.54,0,0,0,.242.325c.081.066.182.129.254.2s.119.176.212.275c-.106.1-.185-.04-.268-.1a.839.839,0,0,0,.045.341l-.013.014-.006.006a.217.217,0,0,1-.027.023.164.164,0,0,1-.068.031l-.024,0a.108.108,0,0,0-.034,0,.375.375,0,0,0-.069.041.106.106,0,0,1-.106.017c-.05-.017-.019-.056-.007-.089a.615.615,0,0,0,.035-.107.3.3,0,0,0,.006-.156l-.05-.157s0-.01-.006-.014a.594.594,0,0,0-.108-.216l-.009-.008c-.118-.1-.312-.111-.433-.212s-.131-.286-.256-.355c-.118.425-.627.087-.916.19-.052.309-.32.371-.509.567-.092.1-.166.283-.309.364a1.573,1.573,0,0,1-.425.087c-.267.067-.587.235-.725-.135-.174-.463.322-.648.433-1.018.316-.027.637.185.934.126.108-.237.371-.871.028-.964a2.274,2.274,0,0,0,.568-.188,1.439,1.439,0,0,1,.534-.273c.256-.27.648-.243.817-.64a.781.781,0,0,1,.127.057c-.041.321.13.313.377.292.185-.017.647.022.707-.184.669-.35.046-.84.344-1.339a.723.723,0,0,0-.462.3c-.116.208.062.282.083.486-.107.065-.173.213-.265.273-.136.089-.223.04-.426.05-.1-.333-.468-.2-.727-.377a.508.508,0,0,1-.081-.233c.317-.236.65-.354.965-.562a3.353,3.353,0,0,1,1.051-.548c.143.005.4.159.564.189a2.957,2.957,0,0,1,.573.182c.241.094.152.1.348-.068.048-.041.139-.077.181-.113.094-.077.04-.2.212-.183.066.278.431.171.386-.109a.29.29,0,0,0,.288-.159c-.248-.16-.232-.121-.315-.377a.46.46,0,0,1,.115-.069c-.139-.037-.28-.072-.421-.1a.561.561,0,0,1-.075.03,2.608,2.608,0,0,1-.835.027c-.6-.008-1.478.293-1.991-.043-.121.014-.209.074-.192.2-.234,0-.487.042-.722.064a.076.076,0,0,0,.02.022l.007,0c0,.005,0,.006-.007,0-.286.107-.462.364-.761.464-.342.113-.684.154-1.017.255-.276.084-.631.079-.89.188-.325.135-.315.371-.737.353a.3.3,0,0,1-.007-.153c.168-.032.3-.331.473-.442a4.284,4.284,0,0,1,.687-.282,6.814,6.814,0,0,0,.761-.35,3.73,3.73,0,0,0,.325-.237,10.449,10.449,0,0,0-7.754,9.637,2.617,2.617,0,0,1,.12.923,2.175,2.175,0,0,0,.357,1.245,4.975,4.975,0,0,1,.666,1.131,2.643,2.643,0,0,1,0,1.345c-.028.268.245.74.281,1.1A10.444,10.444,0,0,0,522,1063.008a10.658,10.658,0,0,0-.1-1.418m-12.829-6.612a2.212,2.212,0,0,1,0,.906c-.111.378-.472.315-.825.3-.079-.283.126-.146.246-.232.093-.068.12-.169.186-.271.1-.012.129-.083.119-.188a.207.207,0,0,1-.152-.2.332.332,0,0,1,.124-.278.3.3,0,0,1,.135-.042c.018,0,.165-.005.169.01m-.756-.861a.525.525,0,0,1,.136-.008l.135-.013a.736.736,0,0,1,.141-.005c.021,0,.149.01.155.031.088.313-.366.217-.556.207-.015-.045-.069-.186-.011-.211m-.035,1.43c.034-.012.068-.023.1-.036a.166.166,0,0,0,.034-.015c.022-.015.02-.039.037-.057s.043,0,.052-.029a.382.382,0,0,1-.135.393c-.057.044-.411.189-.473.136-.233-.2.254-.346.384-.391m8.5,13.46a1.673,1.673,0,0,1-1.239,1.5.54.54,0,0,1-.058-.266c.02-.124.076-.12.108-.2a3.1,3.1,0,0,0,.169-.5c.021-.105-.038-.459.051-.54.052-.047.225.012.293,0a2.052,2.052,0,0,0,.293-.144c-.016-.012-.034,0-.049-.012.228-.191.3-.542.577-.55.177.285.2.577-.145.708m.351-4.184a2.08,2.08,0,0,1-.949,1.216c-.965.627-.51,1.642-.807,2.584-.155.49-.613.522-.941.844-.2.2-.065.409-.17.664-.056.139-.217.185-.285.3s-.034.257-.063.373c-.135.549-.794.6-1.213.825-.437.231-1.22.755-1.684.3a2.885,2.885,0,0,1-.328-.614,2.3,2.3,0,0,1-.324-.509c-.062-.208.023-.417-.139-.587s-.351-.165-.457-.405c-.24-.539.191-.8.195-1.3a3.6,3.6,0,0,0-.648-1.482,1.486,1.486,0,0,1-.268-.563,3.345,3.345,0,0,1,.109-.644c.028-.289-.03-.379-.29-.433a.745.745,0,0,1-.575-.3c-.341-.356-.921-.135-1.425-.161a3.47,3.47,0,0,1-1.426-.162c-.306-.151-.254-.253-.352-.54s-.437-.435-.564-.726a1.328,1.328,0,0,1,0-.728c.032-.211.018-.453.054-.672.121-.73.529-2.015,1.423-2.131a2.074,2.074,0,0,1,1.725-1.343,8.525,8.525,0,0,1,1.7-.026c.318,0,.486-.038.4.317a1.548,1.548,0,0,0-.123.459c.245.091.541.052.787.147s.422.423.713.367c.01-.245.042-.349.176-.386a2.39,2.39,0,0,1,.688.12,1.831,1.831,0,0,1,.4.194c.109.113.078.24.139.362a.305.305,0,0,0,.194-.337c.113.042.238.063.345.1a1.227,1.227,0,0,1,.426.3,3.121,3.121,0,0,1,.3.457c.136.18.307.158.431.371a5.6,5.6,0,0,1,.3.754,3.26,3.26,0,0,0,.614,1.163c.147.157.283.36.44.5a4.827,4.827,0,0,1,.506.412,2.107,2.107,0,0,1,1.14-.33c-.156.363-.02.842-.164,1.234" transform="translate(-500.651 -1051.856)" fill="#b2b2b2"/>
        </g>
        <g id="Group_32" data-name="Group 32" clip-path="url(#clip-path)">
          <path id="Path_38" data-name="Path 38" d="M530.366,1061.883a.441.441,0,0,1-.566-.133c-.1-.145-.036-.44-.165-.587-.044-.05-.209-.075-.277-.139a1.136,1.136,0,0,1-.2-.326c-.034-.062-.064-.127-.092-.193a1.127,1.127,0,0,1-.124-.627.228.228,0,0,1,.179-.193c.066-.006.112.056.173.072a.726.726,0,0,0,.1.009l.018.019c.051.166.314.148.409.343.136.281.011.431-.286.415-.02.239.238.216.367.3a1.945,1.945,0,0,1,.417.444c.113.166.2.473.046.6" transform="translate(-514.458 -1055.266)" fill="#b2b2b2"/>
        </g>
        <g id="Group_33" data-name="Group 33" clip-path="url(#clip-path)">
          <path id="Path_39" data-name="Path 39" d="M510.764,1092.247c.243.5,3.816,2.565,4.721,2.749s4.893,1.105,4.893,1.105a3.988,3.988,0,0,0,1.667-.041,22.713,22.713,0,0,0,3.059-1.746,14.009,14.009,0,0,1,2.722-1.512,4.928,4.928,0,0,1,1.044-.122,12.047,12.047,0,0,1,2.145.127c.09-.019.179-.039.269-.064a4.047,4.047,0,0,0,3.008-3.413l-1.874-.336-2.487-.4-1.626-.807a5.032,5.032,0,0,0-1.687-.312,4.062,4.062,0,0,0-1.1.211,5.716,5.716,0,0,0-1.472.616l-.008,0a1.767,1.767,0,0,0-.312.171c-.195.126-.375.281-.555.4l-.019.012c-.035.026-.07.052-.107.077l-.1.07-.172.12c-.061.044-.121.089-.181.135l-2.168,1.423L520,1091l-.319.208-.213.141-.445.244c-.167.1-.451.188-.613.274-.028.025-.221.133-.252.157a1.252,1.252,0,0,0-.546.99v0a.827.827,0,0,0,.021.085c.174.449.577.142.833.085a8.512,8.512,0,0,0,1.566-.392c.226-.1.53-.241.776-.336a9.419,9.419,0,0,1,1.948-.556c.163-.028.328-.043.487-.058a3.276,3.276,0,0,1,1.078.1.159.159,0,0,1-.05.184.517.517,0,0,1-.111.037,4.05,4.05,0,0,1-.846.144c-.154.014-.313.029-.466.054a10.177,10.177,0,0,0-1.989.548c-.241.093-.471.193-.695.289-.514.22-1.053.224-1.609.423-.72.257-1.184.1-1.365-.366a.854.854,0,0,1,.274-.9,29.565,29.565,0,0,1-4.134-1.245c-.632-.151-1.112-.4-1.8.106-.326.237-1,.514-.758,1.023" transform="translate(-505.411 -1069.063)" fill="#b2b2b2"/>
        </g>
      </g>
    </g>
  </g>
</svg>
