<svg xmlns="http://www.w3.org/2000/svg" xmlns:xlink="http://www.w3.org/1999/xlink" width="33.914" height="24.751" viewBox="0 0 33.914 24.751">
  <defs>
    <clipPath id="clip-path">
      <rect id="Rectangle_48" data-name="Rectangle 48" width="33.914" height="24.751" fill="#b2b2b2"/>
    </clipPath>
  </defs>
  <g id="Group_40" data-name="Group 40" transform="translate(-499.336 -1066.43)">
    <g id="Group_39" data-name="Group 39" transform="translate(499.336 1066.43)">
      <g id="Group_38" data-name="Group 38" clip-path="url(#clip-path)">
        <g id="Group_37" data-name="Group 37" clip-path="url(#clip-path)">
          <path id="Path_40" data-name="Path 40" d="M532.554,1070.2h-2.072v-.709a.611.611,0,0,0-.44-.611,17.2,17.2,0,0,0-4.405-.562,11.363,11.363,0,0,0-8.237,3.055,11.245,11.245,0,0,0-8.236-3.055,17.193,17.193,0,0,0-4.405.562.612.612,0,0,0-.44.611v.7H502.26a.611.611,0,0,0-.611.611v19.516a.61.61,0,0,0,.91.532,21.543,21.543,0,0,1,14.7-1.222h.147a.627.627,0,0,0,.147,0c8.554-2.17,14.664,1.167,14.7,1.222a.611.611,0,0,0,.916-.526v-19.516a.611.611,0,0,0-.611-.611Zm-29.684,19.153V1071.43h1.461v15.324a.611.611,0,0,0,.6.618.658.658,0,0,0,.1-.007,26.666,26.666,0,0,1,3.819-.306,15.859,15.859,0,0,1,5.218.788,22.393,22.393,0,0,0-11.2,1.509m13.925-1.566a14.284,14.284,0,0,0-7.943-1.949,26.825,26.825,0,0,0-3.324.214V1069.98a16.853,16.853,0,0,1,3.623-.4,9.976,9.976,0,0,1,7.625,2.994Zm1.222-15.221a10.067,10.067,0,0,1,7.626-2.994,16.9,16.9,0,0,1,3.623.4v16.076a26.927,26.927,0,0,0-3.306-.22,14.41,14.41,0,0,0-7.943,1.949Zm13.925,16.787a22.467,22.467,0,0,0-11.224-1.509,15.888,15.888,0,0,1,5.243-.788,26.781,26.781,0,0,1,3.843.3.611.611,0,0,0,.7-.513.635.635,0,0,0,.008-.1v-15.318h1.461Z" transform="translate(-500.182 -1067.123)" fill="#b2b2b2"/>
        </g>
      </g>
    </g>
  </g>
</svg>
