<svg xmlns="http://www.w3.org/2000/svg" xmlns:xlink="http://www.w3.org/1999/xlink" width="34.889" height="33.626" viewBox="0 0 34.889 33.626">
  <defs>
    <clipPath id="clip-path">
      <rect id="Rectangle_53" data-name="Rectangle 53" width="34.889" height="33.626" fill="#b2b2b2"/>
    </clipPath>
  </defs>
  <g id="Group_48" data-name="Group 48" transform="translate(-494.984 -1049.94)">
    <g id="Group_47" data-name="Group 47" transform="translate(494.984 1049.94)">
      <g id="Group_46" data-name="Group 46" clip-path="url(#clip-path)">
        <g id="Group_42" data-name="Group 42" clip-path="url(#clip-path)">
          <path id="Path_41" data-name="Path 41" d="M525.8,1074.94a2.1,2.1,0,0,0-.1-1.638.574.574,0,0,0-.392-.26.864.864,0,0,0-.109-.15,1.406,1.406,0,0,0-.373-.3,1.526,1.526,0,0,0-.418-.169,1.778,1.778,0,0,0-.565-.042,1.552,1.552,0,0,0-.2.025,1.422,1.422,0,0,0-.192.05,1.638,1.638,0,0,0-.224.1,1.946,1.946,0,0,0-.209.127,2.181,2.181,0,0,0-.234.168,2.3,2.3,0,0,0-.214.2,2.074,2.074,0,0,0-.289.372,1.646,1.646,0,0,0-.193.469,1.681,1.681,0,0,0-.051.461,1.593,1.593,0,0,0,.092.481.192.192,0,0,0-.21.109.912.912,0,0,0,.04.582,1.755,1.755,0,0,0,.182.459c.056.088.109.12.157.124a2.12,2.12,0,0,0,.406,1,1.59,1.59,0,0,0,1.179.579,1.483,1.483,0,0,0,1.157-.529,2.139,2.139,0,0,0,.409-.977.13.13,0,0,0,.179-.037,1.344,1.344,0,0,0,.234-.526,1.166,1.166,0,0,0,.066-.5.191.191,0,0,0-.126-.174" transform="translate(-506.086 -1059.198)" fill="#b2b2b2"/>
        </g>
        <g id="Group_43" data-name="Group 43" clip-path="url(#clip-path)">
          <path id="Path_42" data-name="Path 42" d="M523.836,1077.7h0a1.668,1.668,0,0,1-1.228-.6,2.136,2.136,0,0,1-.413-.987.338.338,0,0,1-.154-.143,1.842,1.842,0,0,1-.191-.478.978.978,0,0,1-.036-.63.247.247,0,0,1,.179-.144,1.645,1.645,0,0,1-.067-.415,1.748,1.748,0,0,1,.052-.48,1.7,1.7,0,0,1,.2-.487,2.137,2.137,0,0,1,.3-.385,2.46,2.46,0,0,1,.22-.2,2.273,2.273,0,0,1,.241-.173,1.89,1.89,0,0,1,.214-.13,1.715,1.715,0,0,1,.234-.1,1.589,1.589,0,0,1,.2-.052,1.559,1.559,0,0,1,.211-.026,1.872,1.872,0,0,1,.585.043,1.589,1.589,0,0,1,.436.176,1.483,1.483,0,0,1,.39.311,1,1,0,0,1,.1.133.668.668,0,0,1,.406.284,2.179,2.179,0,0,1,.124,1.64.285.285,0,0,1,.117.2,1.243,1.243,0,0,1-.068.536,1.429,1.429,0,0,1-.251.553.221.221,0,0,1-.176.08,2.134,2.134,0,0,1-.409.93,1.555,1.555,0,0,1-1.208.554Zm-1.783-2.855a.114.114,0,0,0-.118.071.844.844,0,0,0,.043.535,1.756,1.756,0,0,0,.174.441c.026.041.065.09.1.092l.055,0,.009.054a2.022,2.022,0,0,0,.392.968,1.533,1.533,0,0,0,1.127.553,1.42,1.42,0,0,0,1.1-.5,2.047,2.047,0,0,0,.4-.944l.018-.1.086.056c.016.011.041.026.091-.026a1.274,1.274,0,0,0,.219-.5,1.131,1.131,0,0,0,.065-.473c-.018-.1-.066-.115-.082-.121l-.058-.021.012-.059a2.041,2.041,0,0,0-.092-1.584.5.5,0,0,0-.34-.231l-.039,0-.018-.035a.8.8,0,0,0-.1-.136,1.32,1.32,0,0,0-.355-.282,1.454,1.454,0,0,0-.4-.162,1.721,1.721,0,0,0-.543-.04,1.347,1.347,0,0,0-.194.024,1.461,1.461,0,0,0-.183.048,1.573,1.573,0,0,0-.214.093,1.871,1.871,0,0,0-.2.122,2.124,2.124,0,0,0-.23.164,2.281,2.281,0,0,0-.207.193,2,2,0,0,0-.28.36,1.578,1.578,0,0,0-.184.449,1.621,1.621,0,0,0-.049.443,1.545,1.545,0,0,0,.087.461l.036.1-.107-.009h-.021" transform="translate(-506.037 -1059.149)" fill="#b2b2b2"/>
        </g>
        <g id="Group_44" data-name="Group 44" clip-path="url(#clip-path)">
          <path id="Path_43" data-name="Path 43" d="M526.873,1066.1a3.022,3.022,0,0,0-2.868,2.081l-2.126-.21-2.125-.21a6.225,6.225,0,0,0-2.5-4.956l1.471-2.475,1.471-2.474a2.95,2.95,0,0,0,.462.116,3.014,3.014,0,1,0-2.523-2.977,2.99,2.99,0,0,0,.956,2.2l-1.471,2.475-1.471,2.474a6.142,6.142,0,0,0-1.251-.422,6.2,6.2,0,0,0-5.4,1.358l-1.194-1.128-1.193-1.129a3,3,0,1,0-1.679,1.321,2.939,2.939,0,0,0,.792-.385l1.193,1.129,1.193,1.129a6.187,6.187,0,0,0-1.282,3.776,6.162,6.162,0,0,0,.039.685,6.462,6.462,0,0,0,.11.664l-2.569.857-2.57.858a3.028,3.028,0,0,0-1.078-1.063,3.01,3.01,0,1,0,1.505,2.609c0-.055,0-.109,0-.162s-.009-.106-.015-.157l2.569-.857,2.569-.858a6.246,6.246,0,0,0,2.253,2.63,6.18,6.18,0,0,0,3.407,1.018c.129,0,.256-.005.381-.013s.249-.021.371-.034l.475,2.074.475,2.075a3.023,3.023,0,1,0,1.288-.285h-.026l-.475-2.075-.475-2.075a6.236,6.236,0,0,0,2.648-1.766,6.166,6.166,0,0,0,1.433-2.865l2.126.21,2.125.21a3.007,3.007,0,1,0,2.983-3.369m-9.4,4.84a1.459,1.459,0,0,0-.19-.6.863.863,0,0,0-.542-.391,5.775,5.775,0,0,1-1.261-.5,5.475,5.475,0,0,1-.523-.312l-.312.986-.312.987-.058.186-.058.186v-.007l-.051.156-.051.156-.166-.468-.166-.468c.417-.579.361-.859.2-.994a.714.714,0,0,0-.425-.125.7.7,0,0,0-.422.122c-.159.134-.216.414.2,1l-.166.472-.166.471-.051-.159-.051-.159-.37-1.172-.369-1.173a5.561,5.561,0,0,1-.523.312,5.811,5.811,0,0,1-1.26.5.859.859,0,0,0-.542.393,1.468,1.468,0,0,0-.191.6,5.057,5.057,0,0,1-.815-1.448,5.017,5.017,0,1,1,8.639,1.454" transform="translate(-495.71 -1050.786)" fill="#b2b2b2"/>
        </g>
        <g id="Group_45" data-name="Group 45" clip-path="url(#clip-path)">
          <path id="Path_44" data-name="Path 44" d="M516.486,1083.869a3.082,3.082,0,0,1-1.367-5.843l-.923-4.035c-.113.012-.216.021-.313.028-.137.01-.263.014-.386.014a6.29,6.29,0,0,1-5.7-3.632l-5.027,1.678c0,.034.007.069.009.1,0,.055.005.11.005.166a3.075,3.075,0,1,1-1.539-2.669,3.1,3.1,0,0,1,1.074,1.04l5.028-1.679c-.042-.2-.076-.408-.1-.61a6.155,6.155,0,0,1-.039-.693,6.248,6.248,0,0,1,1.258-3.769l-2.3-2.177a3.008,3.008,0,0,1-.764.363,3.091,3.091,0,0,1-.924.14,3.079,3.079,0,1,1,3.079-3.08,3.077,3.077,0,0,1-.408,1.54l2.3,2.177a6.279,6.279,0,0,1,6.62-.931l2.882-4.848a3.078,3.078,0,1,1,1.224.735l-2.882,4.848a6.35,6.35,0,0,1,1.783,2.129,6.246,6.246,0,0,1,.7,2.782l4.134.409a3.127,3.127,0,1,1-.129,1.426l-4.134-.409a6.254,6.254,0,0,1-1.436,2.835,6.326,6.326,0,0,1-2.619,1.765l.923,4.035a3.08,3.08,0,0,1-.031,6.159m-2.183-10.026.975,4.264-.051.024a2.953,2.953,0,1,0,1.258-.278H516.4l-.975-4.263.059-.02a6.184,6.184,0,0,0,2.619-1.747,6.1,6.1,0,0,0,1.417-2.832l.012-.061,4.368.432.007.055a2.934,2.934,0,1,0,1.168-2.718,2.975,2.975,0,0,0-1.056,1.459l-.017.053-4.368-.432v-.062a6.111,6.111,0,0,0-.681-2.782,6.221,6.221,0,0,0-1.793-2.119l-.05-.037,3-5.05.053.018a2.862,2.862,0,0,0,.927.152,2.976,2.976,0,1,0-2.007-.8l.041.038-3,5.051-.057-.026a6.082,6.082,0,0,0-1.236-.417,6.167,6.167,0,0,0-1.337-.146,6.115,6.115,0,0,0-4,1.488l-.048.041-2.472-2.338.028-.048a2.912,2.912,0,0,0,.308-.716,2.952,2.952,0,0,0,.109-.8,2.935,2.935,0,1,0-2.058,2.807,2.85,2.85,0,0,0,.773-.377l.046-.032,2.472,2.339-.038.049a6.123,6.123,0,0,0-1.267,3.733,6.006,6.006,0,0,0,.039.677,6.412,6.412,0,0,0,.109.657l.014.061-5.251,1.752-.028-.048a2.968,2.968,0,0,0-1.053-1.038,2.941,2.941,0,1,0,1.471,2.549c0-.053,0-.106,0-.158s-.008-.1-.015-.152l-.008-.056,5.252-1.753.025.057a6.149,6.149,0,0,0,5.6,3.607c.12,0,.243,0,.377-.013.112-.008.233-.019.368-.034Zm-1.345-1.874-.164-.515-.711-2.258c-.087.056-.244.154-.452.265a5.9,5.9,0,0,1-1.275.506.8.8,0,0,0-.5.363,1.382,1.382,0,0,0-.181.568l-.019.164-.1-.129a5.135,5.135,0,0,1-.826-1.468,5.086,5.086,0,1,1,8.758,1.475l-.1.129-.019-.164a1.367,1.367,0,0,0-.182-.571.8.8,0,0,0-.5-.36,5.925,5.925,0,0,1-1.276-.507c-.208-.11-.365-.208-.452-.265l-.711,2.258-.135.435v-.027l-.029.09-.412-1.161.021-.03c.22-.307.436-.712.213-.9a.628.628,0,0,0-.378-.109h-.006a.643.643,0,0,0-.374.106c-.223.187-.009.595.21.9l.021.03Zm-.8-3,.806,2.558.252-.715c-.349-.5-.405-.859-.166-1.061a.853.853,0,0,1,.935,0c.241.2.184.558-.168,1.058l.252.71.1-.3.058-.186.652-2.063.078.055a5.463,5.463,0,0,0,.516.308,5.737,5.737,0,0,0,1.245.5.932.932,0,0,1,.583.421,1.384,1.384,0,0,1,.176.468,4.956,4.956,0,1,0-8.618-1.31,5.009,5.009,0,0,0,.707,1.3,1.4,1.4,0,0,1,.175-.465.931.931,0,0,1,.584-.423,5.78,5.78,0,0,0,1.245-.5,5.318,5.318,0,0,0,.515-.308Z" transform="translate(-495.662 -1050.734)" fill="#b2b2b2"/>
        </g>
      </g>
    </g>
  </g>
</svg>
