<svg xmlns="http://www.w3.org/2000/svg" width="26.444" height="26.444" viewBox="0 0 26.444 26.444">
  <path id="Path_58" data-name="Path 58" d="M27.749,14.779a2.33,2.33,0,0,0-3.27-.08l-4.426,3.932a3.022,3.022,0,0,1,.339,1.4,3.1,3.1,0,0,1-2,2.886l-3.719,1.4a.579.579,0,0,1-.736-.339.565.565,0,0,1,.333-.736l3.719-1.4a1.943,1.943,0,0,0,1.253-1.811A1.988,1.988,0,0,0,17.312,18.1H6.6a1.15,1.15,0,0,0-1.15-1.15H3.15A1.15,1.15,0,0,0,2,18.1v9.2a1.15,1.15,0,0,0,1.15,1.15h2.3a1.15,1.15,0,0,0,1.15-1.15H8.926l.718.293a11.275,11.275,0,0,0,13.007-3.242l5.236-6.329a2.415,2.415,0,0,0-.138-3.236ZM8.322,26.144H6.6v-6.9H8.322ZM18.336,2A4.939,4.939,0,0,0,15.22,3.1,4.939,4.939,0,0,0,12.1,2,5,5,0,0,0,7.121,7c0,5.256,7.49,9.687,7.809,9.873a.577.577,0,0,0,.579,0c.319-.186,7.809-4.617,7.809-9.873a5,5,0,0,0-4.983-5ZM17.318,12.725a.565.565,0,0,1-.374.128.572.572,0,0,1-.374-1C18.7,10.029,19.87,8.3,19.87,7a1.542,1.542,0,0,0-1.533-1.546.575.575,0,0,1,0-1.15A2.692,2.692,0,0,1,21.019,7c0,2.115-2.013,4.283-3.7,5.73Z" transform="translate(-2 -2)" fill="#b2b2b2"/>
</svg>
