<svg xmlns="http://www.w3.org/2000/svg" width="16.09" height="12.872" viewBox="0 0 16.09 12.872">
  <path id="_8665828_school_education_icon" data-name="8665828_school_education_icon" d="M8.045,3.218a.4.4,0,0,1,.4.4v.4h.4a.4.4,0,0,1,0,.8h-.8a.4.4,0,0,1-.4-.4v-.8A.4.4,0,0,1,8.045,3.218Zm3.942-.753,3.158.68a1.25,1.25,0,0,1,.945,1.2v7.321a1.207,1.207,0,0,1-1.207,1.207H1.207A1.207,1.207,0,0,1,0,11.666V4.345a1.251,1.251,0,0,1,.945-1.2L4.1,2.466,7.6.135a.809.809,0,0,1,.9,0ZM6.436,12.873H9.654V10.459a1.609,1.609,0,1,0-3.218,0ZM2.414,4.827a.4.4,0,0,0-.4.4V6.839a.4.4,0,0,0,.4.4h.8a.4.4,0,0,0,.4-.4V5.23a.4.4,0,0,0-.4-.4ZM12.47,6.839a.4.4,0,0,0,.4.4h.8a.4.4,0,0,0,.4-.4V5.23a.4.4,0,0,0-.4-.4h-.8a.4.4,0,0,0-.4.4ZM2.414,8.045a.4.4,0,0,0-.4.4v1.609a.4.4,0,0,0,.4.4h.8a.4.4,0,0,0,.4-.4V8.448a.4.4,0,0,0-.4-.4ZM12.47,10.057a.4.4,0,0,0,.4.4h.8a.4.4,0,0,0,.4-.4V8.448a.4.4,0,0,0-.4-.4h-.8a.4.4,0,0,0-.4.4ZM8.045,2.213a2.212,2.212,0,1,0,2.212,2.212A2.212,2.212,0,0,0,8.045,2.213Z" transform="translate(0 0)" fill="#fff"/>
</svg>
