<svg xmlns="http://www.w3.org/2000/svg" width="16.09" height="14.942" viewBox="0 0 16.09 14.942">
  <path id="_27" data-name="27" d="M6.023,8.625a3.709,3.709,0,0,1,.161-.8,3.661,3.661,0,0,1,.33-.8h0A1.247,1.247,0,1,1,7.736,5.729a4.143,4.143,0,0,1,.74-.41,4.682,4.682,0,0,1,.764-.233,2.848,2.848,0,1,0-3.218,3.54Zm.483,3.218a3.033,3.033,0,0,1,.668.088,4.24,4.24,0,0,1-.652-.893,4.312,4.312,0,0,1-.338-.8A4.5,4.5,0,0,0,2,14.723a.8.8,0,0,0,.8.8H4.582a5.7,5.7,0,0,1,.306-.8,6.106,6.106,0,0,1,.459-.8H3.738a2.88,2.88,0,0,1,2.768-2.076Zm5.865-6.1A1.239,1.239,0,1,1,13.6,7.089h0a3.661,3.661,0,0,1,.33.8,3.709,3.709,0,0,1,.161.8A2.848,2.848,0,1,0,10.85,5.085a4.216,4.216,0,0,1,.8.241,4.481,4.481,0,0,1,.716.418Zm1.537,4.489a4.312,4.312,0,0,1-.338.8,4.023,4.023,0,0,1-.66.9,2.816,2.816,0,0,1,.692-.1,2.888,2.888,0,0,1,2.768,2.076H14.76a6.106,6.106,0,0,1,.459.8,5.7,5.7,0,0,1,.306.8h1.762a.8.8,0,0,0,.8-.8,4.489,4.489,0,0,0-4.183-4.489ZM7.632,7.555a2.719,2.719,0,0,0-.394,1.07,2.961,2.961,0,0,0-.048.475,2.928,2.928,0,0,0,.322,1.287,2.856,2.856,0,0,0,1.247,1.239A2.808,2.808,0,0,0,10,11.948a.217.217,0,0,1,.056.064l.056-.072a2.727,2.727,0,0,0,1.223-.314,2.84,2.84,0,0,0,1.239-1.239A2.784,2.784,0,0,0,12.9,9.1a3.065,3.065,0,0,0-.048-.483,2.961,2.961,0,0,0-.394-1.078,2.76,2.76,0,0,0-.611-.684,2.985,2.985,0,0,0-1.8-.644,3.089,3.089,0,0,0-.732.1,2.912,2.912,0,0,0-1.022.515,2.671,2.671,0,0,0-.66.724Zm2.414.265A1.247,1.247,0,1,1,8.8,9.068a1.247,1.247,0,0,1,1.247-1.247Zm3.781,6.9a4.827,4.827,0,0,0-.652-.8,4.537,4.537,0,0,0-1.754-1.054h0a3.95,3.95,0,0,0-.885-.217h0a4.223,4.223,0,0,0-.491,0H9.57a4.545,4.545,0,0,0-.885.185h0a4.537,4.537,0,0,0-1.754,1.054,4.827,4.827,0,0,0-.652.8,5.044,5.044,0,0,0-.41.8,4.465,4.465,0,0,0-.3,1.609.8.8,0,0,0,.8.8h7.369a.8.8,0,0,0,.8-.8,4.465,4.465,0,0,0-.3-1.609A5.044,5.044,0,0,0,13.826,14.723Zm-6.195.8a2.953,2.953,0,0,1,.8-.8,2.462,2.462,0,0,1,.636-.314,2.8,2.8,0,0,1,.8-.145h.185a2.808,2.808,0,0,1,.8.145,3.218,3.218,0,0,1,.619.314A2.816,2.816,0,0,1,12.7,16.332H7.278a2.945,2.945,0,0,1,.354-.8Z" transform="translate(-2 -2.967)" fill="#fff"/>
</svg>
