<svg xmlns="http://www.w3.org/2000/svg" width="52.211" height="32.632" viewBox="0 0 52.211 32.632">
  <path id="Path_59" data-name="Path 59" d="M14.344,39.632a4.367,4.367,0,0,0,3.916-2.415l4.634-9.267a6.442,6.442,0,0,0,.685-2.9V10.263A3.273,3.273,0,0,0,20.316,7H7.263A3.273,3.273,0,0,0,4,10.263V23.316a3.273,3.273,0,0,0,3.263,3.263H13.79L10.428,33.3A4.368,4.368,0,0,0,14.344,39.632Zm32.632,0a4.367,4.367,0,0,0,3.916-2.415l4.634-9.267a6.441,6.441,0,0,0,.685-2.9V10.263A3.273,3.273,0,0,0,52.948,7H39.895a3.273,3.273,0,0,0-3.263,3.263V23.316a3.273,3.273,0,0,0,3.263,3.263h6.526L43.06,33.3A4.368,4.368,0,0,0,46.976,39.632Z" transform="translate(-4 -7)" fill="#fff"/>
</svg>
