<svg xmlns="http://www.w3.org/2000/svg" width="11.887" height="11.333" viewBox="0 0 11.887 11.333">
  <path id="Path_31" data-name="Path 31" d="M13.878,7a.556.556,0,0,0-.475-.653l-3.385-.475L8.473,2.78a.464.464,0,0,0-.238-.238A.6.6,0,0,0,7.4,2.78L5.92,5.869l-3.385.475a.359.359,0,0,0-.356.178.574.574,0,0,0,0,.831L4.613,9.729l-.594,3.385a.753.753,0,0,0,.059.356.6.6,0,0,0,.831.238l3.029-1.6,3.029,1.6a.445.445,0,0,0,.3.059h.119a.616.616,0,0,0,.475-.713l-.594-3.385L13.7,7.294A.327.327,0,0,0,13.878,7Z" transform="translate(-2 -2.459)" fill="#ff9c39"/>
</svg>
