<svg xmlns="http://www.w3.org/2000/svg" xmlns:xlink="http://www.w3.org/1999/xlink" width="75.37" height="29.454" viewBox="0 0 75.37 29.454">
  <defs>
    <linearGradient id="linear-gradient" x1="0.973" y1="0.094" x2="-0.095" y2="0.917" gradientUnits="objectBoundingBox">
      <stop offset="0" stop-color="#de56ff"/>
      <stop offset="1" stop-color="#41a6ff"/>
    </linearGradient>
  </defs>
  <g id="Group_13121" data-name="Group 13121" transform="translate(-1435.649 -6285)">
    <text id="YlliRi" transform="translate(1470.019 6306.715)" fill="#000727" font-size="19" font-family="SegoeUI, Segoe UI"><tspan x="0" y="0">YlliRi</tspan></text>
    <path id="Union_4" data-name="Union 4" d="M3.284,26.172a11.21,11.21,0,0,1,0-15.852c.058-.058.138-.115.2-.172C7.027,6.7,13.376,3.221,15.815,1.95a.924.924,0,0,1,1.317.546c.092.293.2.667.322,1.07C21.82,2.013,26.024.707,28.25.04A.931.931,0,0,1,29.412,1.2c-.668,2.227-1.974,6.426-3.526,10.8.4.12.771.23,1.07.322a.924.924,0,0,1,.546,1.318c-1.272,2.433-4.757,8.79-8.2,12.335-.058.063-.115.144-.173.2a11.207,11.207,0,0,1-15.85,0Zm.4-7.763a7.362,7.362,0,1,0,7.362-7.362A7.362,7.362,0,0,0,3.679,18.41Zm4.6,5.011a.141.141,0,0,1-.011-.067l.112-.636L7.92,22.27a.108.108,0,0,1,0-.156.067.067,0,0,1,.067-.034l.636-.089.279-.581a.113.113,0,0,1,.156-.045.087.087,0,0,1,.045.045l.29.581.636.089a.1.1,0,0,1,.089.123.061.061,0,0,1-.034.056l-.458.447.112.636a.116.116,0,0,1-.089.134H9.628a.084.084,0,0,1-.056-.011L9,23.163l-.569.3a.107.107,0,0,1-.056.016A.119.119,0,0,1,8.277,23.42Zm4-1.4a.171.171,0,0,1-.013-.081l.134-.766-.551-.537a.13.13,0,0,1,0-.188.082.082,0,0,1,.081-.04L12.7,20.3l.336-.7a.136.136,0,0,1,.188-.054.106.106,0,0,1,.054.054l.349.7.766.107a.126.126,0,0,1,.107.148.074.074,0,0,1-.04.067l-.551.537.134.766a.14.14,0,0,1-.107.161h-.027a.1.1,0,0,1-.067-.014l-.685-.363-.685.363a.129.129,0,0,1-.067.019A.143.143,0,0,1,12.28,22.021ZM7.557,18.776a.326.326,0,0,1-.026-.154l.258-1.468-1.056-1.03a.249.249,0,0,1,0-.36.156.156,0,0,1,.154-.077l1.468-.206L9,14.14a.26.26,0,0,1,.36-.1.2.2,0,0,1,.1.1l.67,1.339,1.468.206a.241.241,0,0,1,.206.283.142.142,0,0,1-.077.129l-1.056,1.03.258,1.468a.267.267,0,0,1-.206.309h-.052a.193.193,0,0,1-.129-.026l-1.313-.7-1.313.7a.248.248,0,0,1-.128.036A.274.274,0,0,1,7.557,18.776Z" transform="translate(1435.649 6285)" fill="url(#linear-gradient)"/>
  </g>
</svg>
